<svg width="80" height="80" viewBox="0 0 80 80" fill="none" xmlns="http://www.w3.org/2000/svg">
<path fill-rule="evenodd" clip-rule="evenodd" d="M17.7689 55.8028C19.0617 57.6012 20.0504 59.5986 20.6965 61.7154C20.1283 62.325 19.8774 63.2048 20.109 64.0691L20.2253 64.5031C20.5826 65.8368 21.9535 66.6282 23.2872 66.2709L34.2485 63.3338C35.5822 62.9764 36.3736 61.6056 36.0163 60.2719L35.9 59.8379C35.6536 58.9185 34.9256 58.2567 34.0601 58.0514L34.1027 55.519C34.1318 53.7893 33.4427 52.125 32.1995 50.9221L25.8121 44.7421C24.8464 43.8078 23.4827 43.5168 22.2689 43.8824L22.2217 33.2801C22.2127 31.2634 20.7368 29.5534 18.7431 29.2497C16.2303 28.867 13.9794 30.842 14.0322 33.3833L14.3245 47.4672C14.3739 49.8442 15.1432 52.1502 16.5309 54.0806L17.7689 55.8028ZM19.7217 33.2912C19.7182 32.5056 19.1433 31.8395 18.3667 31.7212C17.3879 31.5722 16.5111 32.3415 16.5316 33.3314L16.824 47.4153C16.8628 49.2864 17.4685 51.1018 18.5608 52.6214L19.7988 54.3436C21.1941 56.2845 22.2741 58.4318 23.0003 60.7061L31.5536 58.4143L31.6031 55.4769C31.6205 54.4391 31.2071 53.4405 30.4611 52.7188L24.0737 46.5388C23.662 46.1404 23.0135 46.1249 22.5832 46.5031C22.1115 46.9175 22.0821 47.6421 22.5185 48.0935L26.0116 51.7061C26.4915 52.2024 26.4782 52.9937 25.9819 53.4736C25.4856 53.9535 24.6942 53.9402 24.2144 53.4439L20.7213 49.8312C19.7277 48.8036 19.4717 47.3435 19.9274 46.093C19.8318 45.9173 19.7771 45.7161 19.7761 45.502L19.7217 33.2912ZM33.4852 60.4849L33.6015 60.919L22.6401 63.8561L22.5238 63.422L33.4852 60.4849Z" fill="#5BC5F2"></path>
<path fill-rule="evenodd" clip-rule="evenodd" d="M44.4017 58.0514L44.3591 55.519C44.33 53.7893 45.0191 52.125 46.2623 50.9221L52.6498 44.7421C53.6154 43.8078 54.9792 43.5168 56.1929 43.8824L56.2401 33.2801C56.2491 31.2634 57.725 29.5534 59.7187 29.2497C62.2315 28.867 64.4824 30.842 64.4297 33.3833L64.1373 47.4672C64.088 49.8442 63.3186 52.1502 61.9309 54.0806L60.6929 55.8028C59.4002 57.6012 58.4114 59.5986 57.7654 61.7154C58.3336 62.325 58.5844 63.2048 58.3528 64.0691L58.2365 64.5031C57.8792 65.8368 56.5083 66.6282 55.1747 66.2709L44.2133 63.3338C42.8797 62.9764 42.0882 61.6056 42.4456 60.2719L42.5619 59.8379C42.8082 58.9185 43.5363 58.2567 44.4017 58.0514ZM46.8588 55.4769C46.8413 54.4391 47.2548 53.4405 48.0007 52.7188L54.3881 46.5388C54.7998 46.1404 55.4484 46.1249 55.8787 46.5031C56.3503 46.9175 56.3797 47.6421 55.9433 48.0935L52.4502 51.7061C51.9703 52.2024 51.9836 52.9937 52.4799 53.4736C52.9762 53.9535 53.7676 53.9402 54.2475 53.4439L57.7405 49.8312C58.7342 48.8036 58.9901 47.3434 58.5345 46.093C58.6301 45.9173 58.6848 45.7161 58.6857 45.502L58.7401 33.2912C58.7436 32.5056 59.3185 31.8395 60.0951 31.7212C61.074 31.5722 61.9508 32.3415 61.9302 33.3314L61.6379 47.4153C61.599 49.2864 60.9934 51.1018 59.901 52.6214L58.663 54.3436C57.2678 56.2845 56.1878 58.4318 55.4615 60.7061L46.9082 58.4143L46.8588 55.4769ZM44.8604 60.919L44.9767 60.4849L55.938 63.422L55.8217 63.8561L44.8604 60.919Z" fill="#5BC5F2"></path>
<path fill-rule="evenodd" clip-rule="evenodd" d="M25.1823 9.99473C28.2787 10.2329 32.2563 11.1938 35.2796 14.2172C38.2567 17.1943 39.422 22.3997 35.7402 26.4129C36.6961 28.6731 37.3868 31.1143 37.889 33.4578C38.0744 34.3231 38.2351 35.1795 38.3742 36.0138L38.4226 35.8533C39.0482 33.7979 39.9238 31.6026 41.1502 29.5109C39.8101 27.6804 39.2709 25.6023 39.5953 23.5079C39.9784 21.0344 41.5352 18.7258 43.9951 16.881C46.5468 14.9674 50.0094 14.2592 52.6838 13.9976C54.0456 13.8643 55.2565 13.8423 56.1279 13.8533C56.5643 13.8589 56.9176 13.8727 57.1643 13.8854C57.2877 13.8918 57.3847 13.8979 57.4522 13.9025L57.5311 13.9081L57.5534 13.9099L57.5601 13.9104L57.5632 13.9107L57.4601 15.1564L58.686 14.9122L58.6868 14.9162L58.6885 14.9246L58.6935 14.9511L58.7102 15.0425C58.7239 15.1201 58.7424 15.2307 58.7636 15.371C58.8058 15.6516 58.8586 16.0521 58.9037 16.5475C58.9936 17.5359 59.0536 18.9134 58.9336 20.4746C58.6954 23.571 57.7345 27.5485 54.7111 30.5719C51.84 33.4429 46.8965 34.6289 42.9485 31.4075C42.0318 33.0911 41.3383 34.8596 40.8143 36.5812C40.0478 39.0997 39.6628 41.4613 39.4701 43.1954C39.374 44.0608 39.3262 44.7658 39.3024 45.2507C39.2906 45.493 39.2847 45.68 39.2819 45.8042C39.2804 45.8663 39.2797 45.9127 39.2794 45.9425L39.2791 45.9744L39.2791 45.9799C39.2787 46.6699 38.7192 47.2307 38.0291 47.2307C37.3388 47.2307 36.7792 46.6712 36.7791 45.981L36.7791 45.9681L36.7788 45.9221C36.7785 45.8805 36.7779 45.8173 36.7766 45.7337C36.774 45.5666 36.7689 45.3184 36.7585 44.9997C36.7377 44.362 36.696 43.4431 36.6123 42.3278C36.4447 40.0933 36.1101 37.0878 35.4445 33.9816C35.0171 31.9868 34.4583 29.9756 33.7321 28.1118C32.024 29.206 30.1266 29.6289 28.2156 29.333C25.7421 28.9499 23.4336 27.3931 21.5888 24.9332C19.6752 22.3815 18.967 18.9189 18.7053 16.2444C18.5721 14.8827 18.55 13.6717 18.5611 12.8004C18.5666 12.364 18.5805 12.0107 18.5932 11.764C18.5996 11.6405 18.6056 11.5436 18.6102 11.4761L18.6159 11.3971L18.6176 11.3749L18.6182 11.3681L18.6184 11.365L19.8642 11.4682L19.6199 10.2423L19.624 10.2415L19.6323 10.2398L19.6588 10.2348L19.7502 10.2181C19.8279 10.2044 19.9384 10.1859 20.0788 10.1647C20.3594 10.1224 20.7599 10.0696 21.2552 10.0246C22.2437 9.93473 23.6212 9.87465 25.1823 9.99473ZM44.2835 29.2592C47.1071 31.7608 50.7145 31.0328 52.9433 28.8041C55.3694 26.3781 56.225 23.0899 56.4409 20.2828C56.5479 18.8923 56.4944 17.6586 56.4139 16.7738C56.4004 16.6247 56.3861 16.4857 56.3717 16.358C56.2847 16.356 56.1927 16.3543 56.0961 16.3531C55.2929 16.3429 54.1766 16.3634 52.9273 16.4857C50.3795 16.7349 47.4845 17.3891 45.495 18.8811C43.4137 20.442 42.3245 22.2203 42.0659 23.8905C41.895 24.9938 42.0726 26.1333 42.6644 27.2393C44.5292 24.7771 46.9938 22.6143 50.2518 21.2179C50.8864 20.946 51.6212 21.2399 51.8932 21.8745C52.1651 22.509 51.8712 23.2439 51.2366 23.5158C48.2334 24.8029 45.9773 26.8686 44.2835 29.2592ZM33.5119 15.9849C35.5545 18.0277 36.3365 21.2284 34.527 23.9224L34.5207 23.9111C32.9036 21.0363 30.654 18.5909 27.5257 17.5481C26.8708 17.3298 26.1629 17.6838 25.9446 18.3387C25.7262 18.9936 26.0802 19.7015 26.7351 19.9198C29.0562 20.6935 30.8935 22.5621 32.3417 25.1367C32.4629 25.3522 32.5809 25.5717 32.6957 25.795C31.3613 26.7568 29.9525 27.0722 28.5983 26.8624C26.928 26.6037 25.1497 25.5146 23.5889 23.4333C22.0968 21.4437 21.4427 18.5488 21.1934 16.001C21.0712 14.7516 21.0507 13.6353 21.0609 12.8322C21.0621 12.7355 21.0638 12.6436 21.0658 12.5566C21.1935 12.5422 21.3324 12.5279 21.4816 12.5143C22.3663 12.4339 23.6 12.3804 24.9906 12.4874C27.7976 12.7033 31.0859 13.5589 33.5119 15.9849Z" fill="#004170"></path>
<path d="M19.6199 10.2423C19.6199 10.2423 19.619 10.2425 19.8642 11.4682C18.6185 11.3644 18.6184 11.365 18.6184 11.365C18.6647 10.8099 19.0737 10.3515 19.6199 10.2423Z" fill="#004170"></path>
<path d="M58.686 14.9122C58.686 14.9122 58.6858 14.9112 57.4601 15.1564C57.5639 13.9107 57.5632 13.9107 57.5632 13.9107C58.1184 13.9569 58.5768 14.3659 58.686 14.9122Z" fill="#004170"></path>
</svg>