<svg width="80" height="80" viewBox="0 0 80 80" fill="none" xmlns="http://www.w3.org/2000/svg">
<path fill-rule="evenodd" clip-rule="evenodd" d="M39.4348 29.9736C40.3158 29.5794 41.252 29.2993 42.1466 29.2993C43.134 29.2993 44.3495 29.5492 45.5977 29.9007C46.8685 30.2586 48.2651 30.749 49.6473 31.2856C52.412 32.3588 55.1863 33.6433 56.9038 34.502C57.5212 34.8108 57.7715 35.5616 57.4628 36.1791C57.154 36.7966 56.4032 37.0468 55.7857 36.7381C54.1227 35.9066 51.4205 34.6557 48.7426 33.6161C47.4035 33.0963 46.0873 32.6359 44.9199 32.3071C43.7299 31.972 42.7819 31.7993 42.1466 31.7993C41.7427 31.7993 41.1725 31.9349 40.4558 32.2556C39.7533 32.5699 38.9825 33.0293 38.1996 33.5924C36.528 34.7947 34.9195 36.3839 33.9126 37.7961C33.4033 38.5104 33.1018 39.1049 32.9858 39.5289C32.938 39.7033 32.9316 39.8023 32.934 39.851C33.6111 40.5001 34.4128 40.65 35.1565 40.4847C35.9553 40.3072 36.6442 39.7725 36.9717 39.1177C37.2161 38.6288 37.6455 38.3356 37.9393 38.1706C38.2672 37.9866 38.637 37.8471 38.9887 37.7425C39.6875 37.5346 40.492 37.4125 41.1322 37.4125C41.4518 37.4125 41.7503 37.5247 41.8843 37.5761C42.0734 37.6486 42.2854 37.7456 42.5069 37.8553C42.9531 38.0762 43.513 38.3862 44.144 38.7584C45.4102 39.5051 47.0204 40.5361 48.6891 41.6914C50.3576 42.8465 52.0996 44.1363 53.6247 45.4018C54.7406 46.3277 55.7757 47.2694 56.5835 48.1565L58.6935 46.7498C59.2679 46.3669 60.044 46.5221 60.427 47.0965C60.8099 47.6709 60.6547 48.447 60.0803 48.8299L57.9336 50.261C58.0171 50.8923 57.8604 51.6095 57.4625 52.4054C56.866 53.5989 55.8963 54.171 54.9369 54.3233C54.8431 54.3383 54.7497 54.3491 54.6569 54.3563C54.4906 54.7748 54.2298 55.1275 53.9894 55.3986C53.3497 56.1198 52.4455 56.7147 51.8327 57.0211C50.9802 57.4474 50.1855 57.4801 49.4909 57.2786C49.2046 57.975 48.6556 58.6097 47.7761 59.0494C46.3628 59.7561 45.1115 59.7421 44.2197 59.4003C42.6447 60.268 40.8118 60.1799 39.0467 59.6519C37.0022 59.0403 34.8129 57.7782 32.6845 56.2947C29.6432 54.175 26.5032 51.4355 23.8818 49.1485C22.8492 48.2475 21.897 47.4168 21.0631 46.7219C20.5327 46.2799 20.4611 45.4917 20.903 44.9613C21.345 44.431 22.1332 44.3593 22.6635 44.8013C23.5781 45.5634 24.5825 46.4398 25.6489 47.3704C28.2372 49.6289 31.1911 52.2066 34.114 54.2437C36.169 55.676 38.0997 56.7591 39.7632 57.2568C40.5863 57.503 41.2857 57.5909 41.8808 57.5377L36.6297 52.7721C36.1184 52.3082 36.0801 51.5177 36.5441 51.0064C37.008 50.4952 37.7985 50.4569 38.3098 50.9208L45.0147 57.0057C45.0296 57.0193 45.0442 57.0332 45.0585 57.0475C45.0481 57.0371 45.0432 57.0323 45.0438 57.0314C45.0495 57.0234 45.5466 57.3691 46.6581 56.8134C46.9041 56.6903 47.0301 56.5648 47.0983 56.4715C47.1671 56.3772 47.2069 56.2749 47.2255 56.1598C47.2535 55.9863 47.2298 55.7989 47.1873 55.6461L41.3464 50.7784C40.816 50.3365 40.7444 49.5483 41.1864 49.0179C41.6283 48.4876 42.4165 48.416 42.9469 48.8579L49.0315 53.9287C49.0605 53.9529 49.0884 53.9783 49.1151 54.0051C49.1633 54.0532 49.2091 54.0993 49.2528 54.1432C49.5801 54.4725 49.7922 54.6858 50.0417 54.8173C50.153 54.876 50.2374 54.8959 50.3113 54.8979C50.3828 54.8998 50.5109 54.887 50.7147 54.7851C51.1315 54.5766 51.7485 54.1574 52.1191 53.7396C52.1752 53.6765 52.2171 53.6227 52.2484 53.5785C51.3149 52.684 49.9333 51.6461 48.4885 50.6223C47.9014 50.2063 47.2972 49.7881 46.7205 49.3891C45.8437 48.7822 45.0306 48.2196 44.4388 47.7757C43.8865 47.3615 43.7746 46.578 44.1888 46.0257C44.603 45.4734 45.3865 45.3615 45.9388 45.7757C46.5022 46.1983 47.2383 46.7073 48.0724 47.2841C48.6537 47.6861 49.2827 48.121 49.9339 48.5825C51.3885 49.6133 52.9282 50.7598 54.0196 51.8134C54.0559 51.8248 54.0987 51.8359 54.1467 51.845C54.2754 51.8695 54.4144 51.875 54.5448 51.8543C54.6706 51.8343 54.7834 51.7912 54.8843 51.7193C54.9827 51.6492 55.1079 51.5247 55.2263 51.2876C55.3766 50.9871 55.4288 50.7946 55.4463 50.6875C55.41 50.65 55.376 50.6102 55.3445 50.5682C54.6746 49.6751 53.4995 48.5464 52.0283 47.3257C50.5742 46.1192 48.8936 44.8736 47.2661 43.7469C45.6388 42.6203 44.0799 41.623 42.8741 40.9118C42.2692 40.5551 41.7674 40.2788 41.3975 40.0957C41.22 40.0078 41.0895 39.9497 41.0021 39.9154C40.6349 39.9309 40.1399 40.0083 39.7016 40.1387C39.4577 40.2113 39.2761 40.2872 39.1633 40.3505C39.1554 40.355 39.1482 40.3591 39.1416 40.363C38.4374 41.67 37.1356 42.6059 35.6989 42.9252C34.1775 43.2633 32.4632 42.9167 31.1212 41.5747C30.3101 40.7636 30.3531 39.6775 30.5745 38.8689C30.8014 38.0396 31.2896 37.1686 31.877 36.3448C32.4714 35.5112 33.223 34.649 34.0595 33.8276H25.9199C25.2296 33.8276 24.6699 33.268 24.6699 32.5776C24.6699 31.8873 25.2296 31.3276 25.9199 31.3276H37.0739C37.8517 30.7919 38.6521 30.3238 39.4348 29.9736ZM39.0887 40.3988C39.0884 40.3987 39.0911 40.3964 39.0971 40.3919C39.0919 40.3966 39.0889 40.3989 39.0887 40.3988ZM40.9201 39.8867C40.9199 39.8864 40.9249 39.8877 40.9355 39.8911C40.9257 39.8887 40.9203 39.8869 40.9201 39.8867ZM55.4541 50.5868C55.4534 50.5828 55.4532 50.5807 55.4533 50.5807ZM32.9409 39.8897C32.9401 39.8903 32.9377 39.8847 32.9358 39.8711C32.9407 39.8823 32.9417 39.8891 32.9409 39.8897Z" fill="#5BC5F2"></path>
<path fill-rule="evenodd" clip-rule="evenodd" d="M13.9555 27.288C13.5931 27.2276 13.2224 27.3297 12.942 27.5672C12.6617 27.8047 12.5 28.1536 12.5 28.521V47.7899C12.5 48.4802 13.0596 49.0399 13.75 49.0399H20.8491C21.4036 49.0399 21.8918 48.6746 22.0483 48.1426L26.3227 33.6095C26.9577 31.4505 25.5614 29.2223 23.3416 28.8524L13.9555 27.288ZM15 46.5399V29.9966L22.9306 31.3183C23.6705 31.4417 24.136 32.1844 23.9243 32.904L19.9138 46.5399H15Z" fill="#004170"></path>
<path fill-rule="evenodd" clip-rule="evenodd" d="M67.2945 28.3024C67.6569 28.242 68.0276 28.3441 68.308 28.5816C68.5883 28.8191 68.75 29.168 68.75 29.5354V48.8043C68.75 49.4946 68.1904 50.0543 67.5 50.0543H60.4009C59.8464 50.0543 59.3582 49.689 59.2017 49.157L54.9273 34.6239C54.2923 32.4649 55.6886 30.2367 57.9084 29.8668L67.2945 28.3024ZM66.25 47.5543V31.011L58.3194 32.3328C57.5795 32.4561 57.114 33.1988 57.3257 33.9184L61.3362 47.5543H66.25Z" fill="#004170"></path>
</svg>