<svg width="80" height="80" viewBox="0 0 80 80" fill="none" xmlns="http://www.w3.org/2000/svg">
<path d="M22.3359 61.2312C24.1397 60.2473 26.3598 60.4548 27.95 61.7559L28.3033 62.045C30.8783 64.1518 34.5815 64.1518 37.1565 62.045C38.8106 60.6916 41.1894 60.6916 42.8435 62.045C45.4186 64.1518 49.1217 64.1518 51.6968 62.045L52.05 61.7559C53.6403 60.4548 55.8604 60.2473 57.6642 61.2312L61.2118 63.1663C61.8179 63.4969 62.5772 63.2735 62.9078 62.6675C63.2383 62.0614 63.015 61.3021 62.4089 60.9715L58.8613 59.0365C56.1643 57.5654 52.8447 57.8756 50.4669 59.8211L50.1137 60.1101C48.4595 61.4635 46.0808 61.4635 44.4266 60.1101C41.8516 58.0032 38.1485 58.0032 35.5734 60.1101C33.9193 61.4635 31.5405 61.4635 29.8864 60.1101L29.5331 59.821C27.1554 57.8756 23.8358 57.5654 21.1387 59.0365L17.5911 60.9715C16.9851 61.3021 16.7617 62.0614 17.0923 62.6675C17.4229 63.2735 18.1822 63.4969 18.7883 63.1663L22.3359 61.2312Z" fill="#004170"></path>
<path d="M22.3359 67.1797C24.1397 66.1958 26.3598 66.4033 27.95 67.7044L28.3033 67.9935C30.8783 70.1003 34.5815 70.1003 37.1565 67.9935C38.8106 66.6401 41.1894 66.6401 42.8435 67.9935C45.4186 70.1003 49.1217 70.1003 51.6968 67.9935L52.05 67.7044C53.6403 66.4033 55.8604 66.1958 57.6642 67.1797L61.2118 69.1148C61.8179 69.4454 62.5772 69.222 62.9078 68.616C63.2383 68.0099 63.015 67.2506 62.4089 66.92L58.8613 64.985C56.1643 63.5139 52.8447 63.8241 50.4669 65.7695L50.1137 66.0586C48.4595 67.412 46.0808 67.412 44.4266 66.0586C41.8516 63.9517 38.1485 63.9517 35.5734 66.0586C33.9193 67.412 31.5405 67.412 29.8864 66.0586L29.5331 65.7695C27.1554 63.8241 23.8358 63.5138 21.1387 64.985L17.5911 66.92C16.9851 67.2506 16.7617 68.0099 17.0923 68.616C17.4229 69.222 18.1822 69.4454 18.7883 69.1148L22.3359 67.1797Z" fill="#004170"></path>
<path fill-rule="evenodd" clip-rule="evenodd" d="M23.1633 19.6482L23.5483 16.8244C23.8862 14.347 26.0021 12.5 28.5025 12.5H51.4977C53.9981 12.5 56.114 14.347 56.4519 16.8244L56.837 19.6485C57.0091 19.8627 57.1121 20.1348 57.1121 20.4309C57.1121 20.6061 57.076 20.7729 57.0109 20.9243L61.3671 52.8694C61.5242 54.0213 60.1827 54.7642 59.2896 54.02C57.4885 52.5191 54.773 52.9791 53.5667 54.9895L53.3019 55.4309C53.0451 55.8589 52.5827 56.1207 52.0837 56.1207H42.524C42.1859 56.1207 41.8702 55.9517 41.6827 55.6704C40.8823 54.4698 39.118 54.4698 38.3175 55.6704C38.13 55.9517 37.8143 56.1207 37.4762 56.1207H27.8547C27.3873 56.1207 26.9471 55.9006 26.6667 55.5267L26.5459 55.3656C25.195 53.5644 22.6723 53.1323 20.799 54.3812C19.7855 55.0569 18.4489 54.2205 18.6135 53.0136L22.9892 20.9246C22.924 20.7732 22.8879 20.6063 22.8879 20.4309C22.8879 20.1346 22.991 19.8624 23.1633 19.6482ZM21.3551 51.4111C23.0459 50.9436 24.8527 51.1591 26.3789 51.9896L27.8562 28.3542C27.9952 26.1295 29.84 24.3964 32.069 24.3964C34.2981 24.3964 36.1429 26.1295 36.2819 28.3542L37.8116 52.8294C39.1654 52.0834 40.8348 52.0834 42.1886 52.8294L43.7183 28.3542C43.8573 26.1295 45.7022 24.3964 47.9312 24.3964C50.1602 24.3964 52.005 26.1295 52.144 28.3542L53.5926 51.5313C55.0814 50.6413 56.8924 50.3959 58.5716 50.8721L54.591 21.6809H25.4092L21.3551 51.4111ZM54.2501 19.1809L53.9748 17.1622C53.8059 15.9235 52.7479 15 51.4977 15H28.5025C27.2523 15 26.1943 15.9235 26.0254 17.1622L25.7501 19.1809H54.2501ZM35.3562 53.6205L33.7868 28.5101C33.7301 27.603 32.9779 26.8964 32.069 26.8964C31.1602 26.8964 30.408 27.603 30.3513 28.5101L28.7819 53.6205H35.3562ZM51.2183 53.6205L49.6489 28.5101C49.5922 27.603 48.84 26.8964 47.9312 26.8964C47.0223 26.8964 46.2701 27.603 46.2134 28.5101L44.644 53.6205H51.2183Z" fill="#5BC5F2"></path>
</svg>