<svg width="80" height="80" viewBox="0 0 80 80" fill="none" xmlns="http://www.w3.org/2000/svg">
<path d="M16.5977 47.9863C16.5977 47.296 16.038 46.7363 15.3477 46.7363C14.6573 46.7363 14.0977 47.296 14.0977 47.9863V51.5082C14.0977 52.0462 14.442 52.5239 14.9524 52.694L22.5345 55.2211L18.9604 62.3693C18.7198 62.8505 18.8141 63.4317 19.1944 63.8121L24.1745 68.7931C24.555 69.1736 25.1363 69.268 25.6176 69.0273L32.7651 65.4528L35.2928 73.0345C35.463 73.5449 35.9407 73.8892 36.4787 73.8892H43.5223C44.0604 73.8892 44.538 73.5449 44.7082 73.0345L47.2357 65.4534L54.3835 69.0273C54.8648 69.268 55.446 69.1736 55.8265 68.7931L60.8066 63.8121C61.187 63.4317 61.2813 62.8505 61.0407 62.3693L57.4665 55.2211L65.0486 52.694C65.5591 52.5239 65.9034 52.0462 65.9034 51.5082V47.9863C65.9034 47.296 65.3437 46.7363 64.6534 46.7363C63.963 46.7363 63.4034 47.296 63.4034 47.9863V50.6072L56.0726 53.0505C55.717 53.169 55.4333 53.4409 55.2998 53.7911C55.1823 54.0994 55.0577 54.4011 54.9245 54.6961C54.7697 55.0389 54.7775 55.4332 54.9457 55.7696L58.4017 62.6816L54.6956 66.3883L47.7838 62.9324C47.4482 62.7646 47.0551 62.7564 46.7128 62.91C46.4145 63.044 46.1123 63.1695 45.8078 63.285C45.4569 63.4182 45.1843 63.7022 45.0656 64.0583L42.6215 71.3892H37.3796L34.9354 64.0583C34.8168 63.7024 34.5445 63.4186 34.1938 63.2853C33.8886 63.1692 33.5879 63.0437 33.2882 62.9092C32.9459 62.7555 32.5527 62.7637 32.2172 62.9316L25.3053 66.3882L21.5993 62.6816L25.0553 55.7696C25.2235 55.4332 25.2313 55.0389 25.0765 54.6961C24.9433 54.4011 24.8187 54.0994 24.7012 53.7911C24.5677 53.4409 24.284 53.169 23.9284 53.0505L16.5977 50.6072V47.9863Z" fill="#5BC5F2"></path>
<path d="M30.6852 47.9863C30.6852 47.296 30.1255 46.7363 29.4352 46.7363C28.7448 46.7363 28.1852 47.296 28.1852 47.9863C28.1852 54.5119 33.4752 59.8018 40.0007 59.8018C46.5262 59.8018 51.8162 54.5119 51.8162 47.9863C51.8162 47.296 51.2566 46.7363 50.5662 46.7363C49.8758 46.7363 49.3162 47.296 49.3162 47.9863C49.3162 53.1311 45.1455 57.3018 40.0007 57.3018C34.8559 57.3018 30.6852 53.1311 30.6852 47.9863Z" fill="#5BC5F2"></path>
<path fill-rule="evenodd" clip-rule="evenodd" d="M32.9101 10.5303C32.5874 8.2712 34.3404 6.25 36.6224 6.25H43.3794C45.6615 6.25 47.4145 8.27121 47.0918 10.5303L47.055 10.7874C47.1769 10.7885 47.3008 10.8075 47.423 10.8463C56.0609 13.59 62.382 21.0463 62.382 29.9456V36.1102H64.9246C67.4104 36.1102 69.4256 38.1254 69.4256 40.6112C69.4256 43.0969 67.4104 45.1121 64.9246 45.1121H15.0771C12.5913 45.1121 10.5762 43.097 10.5762 40.6112C10.5762 38.1254 12.5913 36.1102 15.0771 36.1102H17.6199V29.9456C17.6199 21.0463 23.9411 13.59 32.5789 10.8463C32.7011 10.8075 32.8249 10.7885 32.9468 10.7874L32.9101 10.5303ZM33.2974 13.2412C25.5419 15.7207 20.1199 22.3222 20.1199 29.9456V36.1102H59.882V29.9456C59.882 22.3222 54.46 15.7207 46.7045 13.2412L44.3689 29.5904C44.2713 30.2738 43.6381 30.7487 42.9547 30.6511C42.2713 30.5535 41.7964 29.9203 41.894 29.2369L44.6169 10.1768C44.7245 9.42374 44.1401 8.75 43.3794 8.75H36.6224C35.8617 8.75 35.2774 9.42373 35.385 10.1768L38.1078 29.2369C38.2055 29.9203 37.7306 30.5535 37.0472 30.6511C36.3638 30.7487 35.7306 30.2738 35.633 29.5904L33.2974 13.2412ZM66.9256 40.6112C66.9256 39.5061 66.0297 38.6102 64.9246 38.6102H15.0771C13.972 38.6102 13.0762 39.5061 13.0762 40.6112C13.0762 41.7162 13.972 42.6121 15.0771 42.6121H64.9246C66.0297 42.6121 66.9256 41.7162 66.9256 40.6112Z" fill="#004170"></path>
</svg>