<svg width="80" height="80" viewBox="0 0 80 80" fill="none" xmlns="http://www.w3.org/2000/svg">
<path fill-rule="evenodd" clip-rule="evenodd" d="M45.2505 25.2346C45.2505 23.8539 46.3698 22.7346 47.7505 22.7346H48.8913C50.272 22.7346 51.3913 23.8539 51.3913 25.2346V40.7041C51.3913 42.0848 50.272 43.2041 48.8913 43.2041H47.7505C46.3698 43.2041 45.2505 42.0848 45.2505 40.7041V25.2346ZM47.7505 25.2346H48.8913V40.7041L47.7505 40.7041V25.2346Z" fill="#5BC5F2"></path>
<path fill-rule="evenodd" clip-rule="evenodd" d="M39.5629 26.8282C38.1822 26.8282 37.0629 27.9475 37.0629 29.3282V40.7038C37.0629 42.0846 38.1822 43.2038 39.5629 43.2038H40.7038C42.0845 43.2038 43.2038 42.0846 43.2038 40.7038V29.3282C43.2038 27.9475 42.0845 26.8282 40.7038 26.8282H39.5629ZM40.7038 29.3282H39.5629V40.7038H40.7038V29.3282Z" fill="#5BC5F2"></path>
<path fill-rule="evenodd" clip-rule="evenodd" d="M28.8747 33.4219C28.8747 32.0412 29.994 30.9219 31.3747 30.9219H32.5156C33.8963 30.9219 35.0156 32.0412 35.0156 33.4219V40.7036C35.0156 42.0843 33.8963 43.2036 32.5156 43.2036H31.3747C29.994 43.2036 28.8747 42.0843 28.8747 40.7036V33.4219ZM31.3747 33.4219H32.5156V40.7036H31.3747V33.4219Z" fill="#5BC5F2"></path>
<path fill-rule="evenodd" clip-rule="evenodd" d="M29.8792 63.2906C27.4459 63.0473 24.9906 63.1938 22.6059 63.7234C22.4534 64.6653 21.7656 65.4771 20.7842 65.7401L19.6822 66.0353C18.3486 66.3927 16.9777 65.6012 16.6204 64.2676L13.1464 51.3024C12.789 49.9687 13.5805 48.5979 14.9141 48.2405L16.0161 47.9453C17.0426 47.6702 18.0912 48.0758 18.6827 48.8853L21.2543 47.3423C22.7377 46.4523 24.5236 46.2169 26.1869 46.6922L36.0818 49.5193C37.5536 49.9398 38.5962 51.159 38.8497 52.5867L49.4136 46.5502C51.319 45.4614 53.7334 45.9219 55.1043 47.6355C56.8322 49.7953 56.1956 52.9911 53.7721 54.324L39.8626 61.9742C37.5432 63.2499 34.8913 63.7918 32.2574 63.5284L29.8792 63.2906ZM50.6539 48.7208C51.4904 48.2428 52.5503 48.445 53.1521 49.1972C53.9107 50.1454 53.6312 51.5483 52.5673 52.1335L38.6578 59.7837C36.7817 60.8155 34.6367 61.2539 32.5062 61.0409L30.128 60.803C27.4668 60.5369 24.7819 60.6913 22.1717 61.2591L19.5051 51.3073L22.5405 49.4861C23.4306 48.9521 24.5021 48.8108 25.5001 49.096L35.395 51.9231C36.0952 52.1231 36.5245 52.8272 36.3817 53.5412C36.2251 54.3238 35.4462 54.8168 34.672 54.6232L29.1782 53.2497C28.5084 53.0823 27.8297 53.4895 27.6623 54.1592C27.4949 54.829 27.9021 55.5077 28.5718 55.6751L34.0656 57.0485C35.5928 57.4303 37.1265 56.8544 38.0478 55.7122C38.2709 55.7193 38.4986 55.6667 38.7065 55.5479L50.6539 48.7208ZM16.6631 50.3601L15.5612 50.6553L19.0352 63.6205L20.1372 63.3253L16.6631 50.3601Z" fill="#5BC5F2"></path>
<path fill-rule="evenodd" clip-rule="evenodd" d="M47.3278 14.257C42.2098 13.2389 36.9049 13.7614 32.0839 15.7584C27.2629 17.7553 23.1423 21.137 20.2432 25.4758C17.9432 28.918 16.494 32.8399 15.9933 36.9196L21.6178 31.295C22.106 30.8068 22.8974 30.8068 23.3856 31.295C23.8737 31.7832 23.8737 32.5746 23.3856 33.0628L15.4306 41.0177C14.9425 41.5059 14.151 41.5059 13.6629 41.0177L5.70791 33.0628C5.21976 32.5746 5.21976 31.7832 5.70791 31.295C6.19607 30.8068 6.98753 30.8068 7.47568 31.295L13.4401 37.2594C13.9099 32.5623 15.5257 28.0361 18.1646 24.0868C21.3383 19.3369 25.8494 15.6348 31.1272 13.4487C36.405 11.2625 42.2126 10.6905 47.8155 11.805C53.4184 12.9195 58.565 15.6704 62.6045 19.7099C66.644 23.7494 69.3949 28.896 70.5094 34.4989C71.6239 40.1018 71.0519 45.9094 68.8657 51.1872C66.6796 56.465 62.9775 60.9761 58.2275 64.1499C53.4776 67.3237 47.8932 69.0177 42.1806 69.0177C41.4902 69.0177 40.9306 68.458 40.9306 67.7677C40.9306 67.0773 41.4902 66.5177 42.1806 66.5177C47.3988 66.5177 52.4998 64.9703 56.8386 62.0712C61.1774 59.1721 64.5591 55.0515 66.556 50.2305C68.553 45.4095 69.0755 40.1046 68.0574 34.9866C67.0394 29.8687 64.5266 25.1675 60.8368 21.4777C57.1469 17.7878 52.4458 15.275 47.3278 14.257Z" fill="#004170"></path>
</svg>