<svg width="80" height="80" viewBox="0 0 80 80" fill="none" xmlns="http://www.w3.org/2000/svg">
<path d="M52.2532 17.01C52.5984 16.4121 53.3629 16.2073 53.9608 16.5524C59.1456 19.5459 63.2497 24.104 65.6848 29.5733C68.12 35.0427 68.7611 41.1425 67.5163 46.9987C67.3728 47.6739 66.709 48.105 66.0338 47.9615C65.3585 47.8179 64.9274 47.1542 65.071 46.4789C66.2059 41.1392 65.6214 35.5772 63.401 30.5902C61.1806 25.6031 57.4384 21.447 52.7108 18.7175C52.1129 18.3723 51.9081 17.6078 52.2532 17.01Z" fill="#004170"></path>
<path d="M26.4848 17.4596C26.8507 18.045 26.6726 18.8162 26.0872 19.1821C21.4577 22.0749 17.8628 26.3591 15.8179 31.4206C13.7729 36.4821 13.3828 42.061 14.7034 47.3579C14.8704 48.0277 14.4628 48.7062 13.7929 48.8732C13.1231 49.0402 12.4447 48.6326 12.2777 47.9627C10.8293 42.1536 11.2571 36.0351 13.4999 30.4841C15.7427 24.933 19.6852 20.2345 24.7624 17.0619C25.3478 16.6961 26.119 16.8741 26.4848 17.4596Z" fill="#004170"></path>
<path d="M49.4818 67.744C50.1305 67.5079 50.465 66.7906 50.2289 66.1419C49.9928 65.4932 49.2755 65.1587 48.6268 65.3948C43.0176 67.4364 36.8748 67.4738 31.2411 65.5008C30.5896 65.2726 29.8764 65.6159 29.6482 66.2674C29.42 66.919 29.7633 67.6321 30.4148 67.8603C36.5933 70.0241 43.3302 69.9831 49.4818 67.744Z" fill="#004170"></path>
<path fill-rule="evenodd" clip-rule="evenodd" d="M30.0297 10C30.0297 8.61929 31.149 7.5 32.5297 7.5H47.0418C48.4225 7.5 49.5418 8.61929 49.5418 10V15.84C49.5418 16.6205 49.1841 17.3175 48.6238 17.7759V19.1846C48.6238 20.6158 48.8969 22.0339 49.4284 23.3627L49.8083 24.3126C50.458 25.9367 50.7918 27.6699 50.7918 29.4192V36.4992L51.4942 36.2651C53.74 35.5164 56.2161 36.101 57.89 37.7749L61.1289 41.0138C62.8179 42.7028 63.6132 45.0885 63.2754 47.4532C63.1101 48.6102 63.3481 49.7889 63.9494 50.7911L64.4204 51.576C65.3589 51.0993 66.5354 51.2533 67.3201 52.038L71.4496 56.1676C72.4259 57.1439 72.4259 58.7268 71.4496 59.7031L61.188 69.9647C60.2117 70.941 58.6288 70.941 57.6525 69.9647L53.523 65.8352C52.9712 65.2834 52.7313 64.5378 52.8032 63.8176L51.8067 62.8211C50.7947 61.8091 49.5988 60.9994 48.2833 60.4357L47.3431 60.0327C45.7352 59.3436 44.2737 58.3541 43.0367 57.1172L41.2385 55.319C40.613 56.0113 39.7081 56.4463 38.7016 56.4463C38.657 56.4463 38.6127 56.4455 38.5685 56.4438L37.8951 57.1172C36.6582 58.3541 35.1966 59.3436 33.5888 60.0327L32.6485 60.4357C31.333 60.9994 30.1372 61.8091 29.1252 62.8211L28.1287 63.8176C28.2006 64.5378 27.9607 65.2834 27.4089 65.8352L23.2794 69.9647C22.303 70.941 20.7201 70.941 19.7438 69.9647L9.48223 59.7031C8.50592 58.7268 8.50592 57.1439 9.48223 56.1676L13.6118 52.038C14.3965 51.2533 15.573 51.0993 16.5115 51.576L16.9824 50.7911C17.5838 49.7889 17.8218 48.6102 17.6565 47.4532C17.3187 45.0885 18.1139 42.7028 19.803 41.0138L23.0418 37.7749C24.2632 36.5535 25.9117 35.9121 27.5862 35.9454C26.9614 34.9618 26.6117 33.8045 26.6117 32.5941V28.0136C26.6117 25.625 27.7363 23.3757 29.6473 21.9425C30.5823 21.2413 31.2474 20.2395 31.5309 19.1056L31.753 18.2171C30.7525 17.8904 30.0297 16.9496 30.0297 15.84V10ZM32.5297 10H47.0418V15.84H32.5297L32.5297 10ZM43.6743 54.2192L44.8045 55.3494C45.8165 56.3614 47.0124 57.171 48.3279 57.7348L49.2681 58.1378C50.876 58.8269 52.3375 59.8164 53.5745 61.0533L54.1719 61.6507L62.533 53.2896L61.8057 52.0773C60.9089 50.5827 60.554 48.825 60.8005 47.0996C61.027 45.5139 60.4938 43.9142 59.3611 42.7815L56.1223 39.5427C55.1818 38.6022 53.8195 38.2349 52.5436 38.5607L55.7049 41.722L53.9371 43.4897L50.7918 40.3444V46.524C50.7918 48.4117 49.2615 49.942 47.3738 49.942C47.0558 49.942 46.7479 49.8986 46.4559 49.8173V50.8603C46.4559 52.5305 45.2579 53.921 43.6743 54.2192ZM35.4553 54.101C35.6054 54.5555 35.8482 54.9677 36.1614 55.3153L36.1274 55.3494C35.1153 56.3614 33.9195 57.171 32.604 57.7348L31.6637 58.1378C30.0559 58.8269 28.5943 59.8164 27.3574 61.0533L26.76 61.6507L18.3988 53.2896L19.1262 52.0773C20.0229 50.5827 20.3779 48.825 20.1314 47.0996C19.9049 45.5139 20.4381 43.9142 21.5707 42.7815L24.8096 39.5427C25.75 38.6022 27.1124 38.2349 28.3883 38.5607L25.227 41.722L26.9947 43.4897L30.9477 39.5368V50.8604C30.9477 52.7481 32.4779 54.2784 34.3657 54.2784C34.7466 54.2784 35.1131 54.216 35.4553 54.101ZM46.4558 33.5159H43.9558V46.524L43.9559 46.5478V50.8603C43.9559 51.3673 43.5448 51.7783 43.0378 51.7783C42.5308 51.7783 42.1198 51.3673 42.1198 50.8603V33.5162H39.6198L39.6196 53.0283C39.6196 53.5353 39.2086 53.9463 38.7016 53.9463C38.1946 53.9463 37.7836 53.5353 37.7836 53.0283V50.8841L37.7837 50.8604V33.5163L35.2836 33.5162V50.8727C35.277 51.374 34.8685 51.7784 34.3657 51.7784C33.8587 51.7784 33.4477 51.3674 33.4477 50.8604V37.883C33.4481 37.8631 33.4481 37.8433 33.4477 37.8235V31.3483H30.9477V35.8188C29.8152 35.147 29.1117 33.924 29.1117 32.5941V28.0136C29.1117 26.4119 29.8659 24.9036 31.1473 23.9425C32.5416 22.8967 33.5335 21.4029 33.9563 19.712L34.2992 18.34H46.1238V19.1846C46.1238 20.9339 46.4576 22.6671 47.1072 24.2912L47.4871 25.241C48.0187 26.5699 48.2918 27.988 48.2918 29.4192V46.524C48.2918 47.031 47.8808 47.442 47.3738 47.442C46.8709 47.442 46.4624 47.0376 46.4559 46.5363L46.4558 33.5159ZM11.25 57.9353L21.5116 68.1969L25.6411 64.0674L15.3795 53.8058L11.25 57.9353ZM59.4203 68.1969L69.6819 57.9353L65.5523 53.8058L55.2907 64.0674L59.4203 68.1969Z" fill="#5BC5F2"></path>
</svg>