<svg viewBox="0 0 320 200" xmlns="http://www.w3.org/2000/svg" role="img" aria-label="Wireframe — Campaign Genius main view">
  <defs>
    <pattern id="cg-wf-grid" width="10" height="10" patternUnits="userSpaceOnUse">
      <path d="M10 0 H0 V10" fill="none" stroke="#1a1612" stroke-width="0.4" opacity="0.06"></path>
    </pattern>
  </defs>
  <rect width="320" height="200" fill="#f7f2e3"></rect>
  <rect width="320" height="200" fill="url(#cg-wf-grid)"></rect>

  
  <rect x="14" y="12" width="292" height="18" fill="#1a1612" opacity="0.04" stroke="#4a4136" stroke-width="0.8" stroke-opacity="0.55"></rect>
  <rect x="20" y="18" width="8" height="6" fill="#7a2620" opacity="0.7"></rect>
  <g stroke="#4a4136" stroke-width="0.8" opacity="0.45"><line x1="150" y1="21" x2="166" y2="21"></line><line x1="178" y1="21" x2="194" y2="21"></line><line x1="206" y1="21" x2="222" y2="21"></line></g>
  <g fill="#4a4136" opacity="0.4"><circle cx="280" cy="21" r="2"></circle><circle cx="290" cy="21" r="2"></circle><circle cx="300" cy="21" r="2"></circle></g>

  
  <rect x="14" y="40" width="150" height="9" fill="#1a1612" opacity="0.10"></rect>
  <rect x="14" y="52" width="96" height="5" fill="#1a1612" opacity="0.06"></rect>

  
  <rect x="14" y="66" width="90" height="40" fill="#1a1612" opacity="0.05" stroke="#4a4136" stroke-width="0.8" stroke-opacity="0.5"></rect>
  <rect x="115" y="66" width="90" height="40" fill="#7a2620" opacity="0.10" stroke="#7a2620" stroke-width="1.1" stroke-opacity="0.85"></rect>
  <rect x="216" y="66" width="90" height="40" fill="#1a1612" opacity="0.05" stroke="#4a4136" stroke-width="0.8" stroke-opacity="0.5"></rect>
  <g fill="#4a4136" opacity="0.4"><rect x="20" y="72" width="8" height="8"></rect><rect x="121" y="72" width="8" height="8"></rect><rect x="222" y="72" width="8" height="8"></rect></g>
  <g fill="#1a1612" opacity="0.12"><rect x="20" y="86" width="50" height="4"></rect><rect x="121" y="86" width="50" height="4"></rect><rect x="222" y="86" width="50" height="4"></rect></g>
  <g fill="#1a1612" opacity="0.06"><rect x="20" y="94" width="74" height="3"></rect><rect x="121" y="94" width="74" height="3"></rect><rect x="222" y="94" width="74" height="3"></rect></g>

  
  <rect x="14" y="116" width="292" height="58" fill="none" stroke="#4a4136" stroke-width="0.8" stroke-opacity="0.5"></rect>
  <line x1="14" y1="130" x2="306" y2="130" stroke="#4a4136" stroke-width="0.8" stroke-opacity="0.5"></line>
  <g stroke="#4a4136" stroke-width="0.5" opacity="0.28"><line x1="14" y1="142" x2="306" y2="142"></line><line x1="14" y1="152" x2="306" y2="152"></line><line x1="14" y1="162" x2="306" y2="162"></line></g>
  <g fill="#4a4136" opacity="0.35"><rect x="20" y="121" width="22" height="4"></rect><rect x="80" y="121" width="22" height="4"></rect><rect x="150" y="121" width="22" height="4"></rect><rect x="220" y="121" width="22" height="4"></rect></g>
  <g fill="#7a2620" opacity="0.5"><circle cx="22" cy="135" r="2"></circle><circle cx="22" cy="147" r="2"></circle><circle cx="22" cy="157" r="2"></circle><circle cx="22" cy="167" r="2"></circle></g>

  
  <text x="160" y="9.5" text-anchor="middle" font-family="&#39;JetBrains Mono&#39;, monospace" font-size="6" fill="#7a2620" letter-spacing="2" opacity="0.85">WIREFRAME · ESBOÇO</text>
  <text x="160" y="63" text-anchor="middle" font-family="&#39;JetBrains Mono&#39;, monospace" font-size="5.5" fill="#8b7f6e" letter-spacing="1.5" opacity="0.85">3 AÇÕES PRIMÁRIAS</text>
  <text x="160" y="186" text-anchor="middle" font-family="&#39;EB Garamond&#39;, serif" font-style="italic" font-size="8" fill="#8b7f6e" opacity="0.8">tabela · últimas campanhas</text>
</svg>