<svg viewBox="0 0 320 200" xmlns="http://www.w3.org/2000/svg" role="img" aria-label="Wireframe — Contract Explorer main view">
  <defs>
    <pattern id="ce-wf-grid" width="10" height="10" patternUnits="userSpaceOnUse">
      <path d="M10 0 H0 V10" fill="none" stroke="#1a1612" stroke-width="0.4" opacity="0.06"></path>
    </pattern>
  </defs>
  <rect width="320" height="200" fill="#f7f2e3"></rect>
  <rect width="320" height="200" fill="url(#ce-wf-grid)"></rect>

  
  <rect x="14" y="12" width="292" height="18" fill="#1a1612" opacity="0.04" stroke="#4a4136" stroke-width="0.8" stroke-opacity="0.55"></rect>
  <rect x="20" y="18" width="8" height="6" fill="#7a2620" opacity="0.7"></rect>
  <g stroke="#4a4136" stroke-width="0.8" opacity="0.45"><line x1="150" y1="21" x2="166" y2="21"></line><line x1="178" y1="21" x2="194" y2="21"></line><line x1="206" y1="21" x2="222" y2="21"></line></g>
  <g fill="#4a4136" opacity="0.4"><circle cx="280" cy="21" r="2"></circle><circle cx="290" cy="21" r="2"></circle><circle cx="300" cy="21" r="2"></circle></g>

  
  <rect x="14" y="38" width="292" height="12" fill="#1a1612" opacity="0.03" stroke="#4a4136" stroke-width="0.6" stroke-opacity="0.4"></rect>
  <rect x="20" y="43" width="120" height="3" fill="#1a1612" opacity="0.10"></rect>
  <text x="298" y="47" text-anchor="middle" font-family="&#39;JetBrains Mono&#39;, monospace" font-size="7" fill="#4a4136" opacity="0.5">×</text>

  
  <rect x="14" y="58" width="110" height="7" fill="#1a1612" opacity="0.10"></rect>
  <g fill="none" stroke="#4a4136" stroke-width="0.8" opacity="0.45"><rect x="262" y="56" width="12" height="11"></rect><rect x="278" y="56" width="12" height="11"></rect><rect x="294" y="56" width="12" height="11"></rect></g>

  
  <rect x="14" y="74" width="292" height="84" fill="none" stroke="#4a4136" stroke-width="0.9" stroke-dasharray="4 3" stroke-opacity="0.6"></rect>
  <circle cx="148" cy="104" r="9" fill="none" stroke="#4a4136" stroke-width="0.9" opacity="0.5"></circle>
  <rect x="135" y="116" width="26" height="20" rx="3" fill="#1a1612" opacity="0.05" stroke="#4a4136" stroke-width="0.9" stroke-opacity="0.5"></rect>
  <circle cx="184" cy="110" r="13" fill="none" stroke="#7a2620" stroke-width="1" opacity="0.6"></circle>
  <line x1="193" y1="119" x2="201" y2="127" stroke="#7a2620" stroke-width="1.2" opacity="0.6"></line>
  <rect x="120" y="142" width="80" height="5" fill="#1a1612" opacity="0.10"></rect>

  
  <rect x="14" y="166" width="292" height="14" rx="7" fill="none" stroke="#7a2620" stroke-width="1" stroke-opacity="0.7"></rect>
  <rect x="22" y="171" width="120" height="4" fill="#1a1612" opacity="0.08"></rect>
  <path d="M292 169 l8 4 l-8 4 l2 -4 z" fill="#7a2620" opacity="0.6"></path>

  
  <text x="160" y="9.5" text-anchor="middle" font-family="&#39;JetBrains Mono&#39;, monospace" font-size="6" fill="#7a2620" letter-spacing="2" opacity="0.85">WIREFRAME · ESBOÇO</text>
  <text x="160" y="100" text-anchor="middle" font-family="&#39;JetBrains Mono&#39;, monospace" font-size="5.5" fill="#8b7f6e" letter-spacing="1.5" opacity="0.7">EMPTY STATE · SELECIONAR CONTRATO</text>
  <text x="160" y="193" text-anchor="middle" font-family="&#39;EB Garamond&#39;, serif" font-style="italic" font-size="8" fill="#8b7f6e" opacity="0.8">campo de pergunta em linguagem natural</text>
</svg>