<svg viewBox="0 0 320 200" xmlns="http://www.w3.org/2000/svg" role="img" aria-label="Engraved schematic — Contract Explorer: answer traced to the exact clause">
  <defs>
    <radialGradient id="ce-glow" cx="50%" cy="32%" r="75%">
      <stop offset="0%" stop-color="#142640"></stop>
      <stop offset="100%" stop-color="#0e1520"></stop>
    </radialGradient>
  </defs>
  <rect width="320" height="200" fill="url(#ce-glow)"></rect>
  <rect x="8" y="8" width="304" height="184" fill="none" stroke="#7a2620" stroke-width="0.8" opacity="0.5"></rect>
  <rect x="13" y="13" width="294" height="174" fill="none" stroke="#b58d3d" stroke-width="0.4" opacity="0.3"></rect>
  <g stroke="#b58d3d" stroke-width="1" opacity="0.7">
    <path d="M18 24 V18 H24"></path><path d="M296 18 H302 V24"></path><path d="M18 176 V182 H24"></path><path d="M302 176 V182 H296"></path>
  </g>
  <text x="160" y="34" text-anchor="middle" font-family="&#39;JetBrains Mono&#39;, monospace" font-size="7" fill="#b58d3d" letter-spacing="4" opacity="0.85">PLATE · III</text>
  <text x="160" y="52" text-anchor="middle" font-family="&#39;Instrument Serif&#39;, serif" font-size="17" font-style="italic" fill="#f1ece0" opacity="0.96">Contract Explorer</text>
  <line x1="116" y1="60" x2="204" y2="60" stroke="#7a2620" stroke-width="0.6" opacity="0.55"></line>

  
  <g transform="translate(28,76)">
    <rect x="0" y="0" width="98" height="62" rx="3" fill="#c4b8a0" opacity="0.06" stroke="#c4b8a0" stroke-width="0.5" stroke-opacity="0.3"></rect>
    <circle cx="12" cy="14" r="5" fill="#7a2620" opacity="0.8"></circle>
    <rect x="22" y="11" width="64" height="3.5" rx="1.5" fill="#f1ece0" opacity="0.4"></rect>
    <rect x="10" y="26" width="78" height="3" rx="1.5" fill="#c4b8a0" opacity="0.28"></rect>
    <rect x="10" y="34" width="70" height="3" rx="1.5" fill="#c4b8a0" opacity="0.28"></rect>
    <rect x="10" y="46" width="40" height="9" rx="2" fill="#b58d3d" opacity="0.18" stroke="#b58d3d" stroke-width="0.7"></rect>
    <text x="30" y="52.5" text-anchor="middle" font-family="&#39;JetBrains Mono&#39;, monospace" font-size="5.5" fill="#b58d3d" letter-spacing="0.6" opacity="0.9">CITE §</text>
    <text x="49" y="76" text-anchor="middle" font-family="&#39;JetBrains Mono&#39;, monospace" font-size="6.5" fill="#c4b8a0" letter-spacing="1.5" opacity="0.6">ANSWER</text>
  </g>

  
  <path d="M88 122 C 150 132, 168 118, 196 100" fill="none" stroke="#b58d3d" stroke-width="0.9" stroke-dasharray="2.5 2.5" opacity="0.85"></path>
  <circle cx="88" cy="122" r="2" fill="#b58d3d"></circle>
  <circle cx="196" cy="100" r="2" fill="#b58d3d"></circle>

  
  <g transform="translate(196,72)">
    <rect x="0" y="0" width="74" height="74" rx="2" fill="#f1ece0" opacity="0.07" stroke="#c4b8a0" stroke-width="0.5" stroke-opacity="0.35"></rect>
    <g stroke="#c4b8a0" stroke-width="1" opacity="0.22">
      <line x1="9" y1="12" x2="65" y2="12"></line><line x1="9" y1="19" x2="58" y2="19"></line>
    </g>
    <rect x="7" y="26" width="60" height="11" fill="#b58d3d" opacity="0.16"></rect>
    <line x1="9" y1="31.5" x2="65" y2="31.5" stroke="#7a2620" stroke-width="1.4" opacity="0.85"></line>
    <g stroke="#c4b8a0" stroke-width="1" opacity="0.22">
      <line x1="9" y1="46" x2="63" y2="46"></line><line x1="9" y1="53" x2="50" y2="53"></line><line x1="9" y1="60" x2="60" y2="60"></line>
    </g>
    <text x="37" y="84" text-anchor="middle" font-family="&#39;JetBrains Mono&#39;, monospace" font-size="6.5" fill="#c4b8a0" letter-spacing="1.2" opacity="0.6">CLAUSE · §</text>
  </g>

  <line x1="40" y1="172" x2="280" y2="172" stroke="#b58d3d" stroke-width="0.6" opacity="0.4"></line>
  <text x="160" y="186" text-anchor="middle" font-family="&#39;EB Garamond&#39;, serif" font-size="8.5" font-style="italic" fill="#c4b8a0" opacity="0.7">Fig. iii — a resposta rastreada até a cláusula exata</text>
</svg>