<svg viewBox="0 0 320 200" xmlns="http://www.w3.org/2000/svg" role="img" aria-label="Engraved schematic — Deploy Check: pre-deploy risk gauge with justified audit trail">
  <defs>
    <radialGradient id="dc-glow" cx="50%" cy="32%" r="75%">
      <stop offset="0%" stop-color="#3a1c0e"></stop>
      <stop offset="100%" stop-color="#1c1510"></stop>
    </radialGradient>
  </defs>
  <rect width="320" height="200" fill="url(#dc-glow)"></rect>
  <rect x="8" y="8" width="304" height="184" fill="none" stroke="#7a2620" stroke-width="0.8" opacity="0.55"></rect>
  <rect x="13" y="13" width="294" height="174" fill="none" stroke="#b58d3d" stroke-width="0.4" opacity="0.3"></rect>
  <g stroke="#b58d3d" stroke-width="1" opacity="0.7">
    <path d="M18 24 V18 H24"></path><path d="M296 18 H302 V24"></path><path d="M18 176 V182 H24"></path><path d="M302 176 V182 H296"></path>
  </g>
  <text x="160" y="34" text-anchor="middle" font-family="&#39;JetBrains Mono&#39;, monospace" font-size="7" fill="#b58d3d" letter-spacing="4" opacity="0.85">PLATE · VI</text>
  <text x="160" y="52" text-anchor="middle" font-family="&#39;Instrument Serif&#39;, serif" font-size="17" font-style="italic" fill="#f1ece0" opacity="0.96">Deploy Check</text>
  <line x1="122" y1="60" x2="198" y2="60" stroke="#7a2620" stroke-width="0.6" opacity="0.55"></line>

  
  <g transform="translate(82,128)">
    <path d="M-46 0 A46 46 0 0 1 -16 -43" fill="none" stroke="#7a8a4a" stroke-width="6" opacity="0.7" stroke-linecap="butt"></path>
    <path d="M-16 -43 A46 46 0 0 1 16 -43" fill="none" stroke="#b58d3d" stroke-width="6" opacity="0.75"></path>
    <path d="M16 -43 A46 46 0 0 1 46 0" fill="none" stroke="#7a2620" stroke-width="6" opacity="0.8"></path>
    <line x1="0" y1="0" x2="30" y2="-32" stroke="#f1ece0" stroke-width="1.6" opacity="0.85" stroke-linecap="round"></line>
    <circle cx="0" cy="0" r="3.4" fill="#f1ece0" opacity="0.9"></circle>
    <text x="-44" y="14" font-family="&#39;JetBrains Mono&#39;, monospace" font-size="5.5" fill="#c4b8a0" opacity="0.55">LOW</text>
    <text x="44" y="14" text-anchor="end" font-family="&#39;JetBrains Mono&#39;, monospace" font-size="5.5" fill="#c4b8a0" opacity="0.55">HIGH</text>
    <text x="0" y="-52" text-anchor="middle" font-family="&#39;JetBrains Mono&#39;, monospace" font-size="6" fill="#b58d3d" letter-spacing="1.5" opacity="0.8">RISK · MED</text>
  </g>

  
  <g transform="translate(150,76)">
    <g font-family="&#39;JetBrains Mono&#39;, monospace" font-size="6.5" fill="#c4b8a0">
      
      <path d="M2 6 l3 4 l6 -8" fill="none" stroke="#7a8a4a" stroke-width="1.4" opacity="0.9"></path>
      <rect x="18" y="2" width="120" height="3" rx="1.5" fill="#c4b8a0" opacity="0.28"></rect>
      <rect x="18" y="9" width="86" height="3" rx="1.5" fill="#c4b8a0" opacity="0.18"></rect>
      
      <path d="M2 28 l9 9 M11 28 l-9 9" stroke="#7a2620" stroke-width="1.3" opacity="0.9"></path>
      <rect x="18" y="28" width="120" height="3" rx="1.5" fill="#c4b8a0" opacity="0.28"></rect>
      <rect x="18" y="35" width="74" height="3" rx="1.5" fill="#c4b8a0" opacity="0.18"></rect>
      
      <circle cx="6" cy="58" r="4" fill="none" stroke="#b58d3d" stroke-width="1.2" opacity="0.85"></circle>
      <line x1="6" y1="56" x2="6" y2="60" stroke="#b58d3d" stroke-width="1.2" opacity="0.85"></line>
      <rect x="18" y="54" width="120" height="3" rx="1.5" fill="#c4b8a0" opacity="0.28"></rect>
      <rect x="18" y="61" width="96" height="3" rx="1.5" fill="#c4b8a0" opacity="0.18"></rect>
    </g>
    <text x="70" y="84" text-anchor="middle" font-family="&#39;JetBrains Mono&#39;, monospace" font-size="6.5" fill="#c4b8a0" letter-spacing="1.2" opacity="0.6">AUDIT TRAIL</text>
  </g>

  <line x1="40" y1="172" x2="280" y2="172" stroke="#b58d3d" stroke-width="0.6" opacity="0.4"></line>
  <text x="160" y="186" text-anchor="middle" font-family="&#39;EB Garamond&#39;, serif" font-size="8.5" font-style="italic" fill="#c4b8a0" opacity="0.7">Fig. vi — o medidor de risco e o julgamento humano</text>
</svg>