<svg viewBox="0 0 320 200" xmlns="http://www.w3.org/2000/svg" role="img" aria-label="Wireframe — Deploy Check main view">
  <defs>
    <pattern id="dc-wf-grid" width="10" height="10" patternUnits="userSpaceOnUse">
      <path d="M10 0 H0 V10" fill="none" stroke="#1a1612" stroke-width="0.4" opacity="0.06"></path>
    </pattern>
  </defs>
  <rect width="320" height="200" fill="#f7f2e3"></rect>
  <rect width="320" height="200" fill="url(#dc-wf-grid)"></rect>

  
  <rect x="14" y="12" width="292" height="18" fill="#1a1612" opacity="0.04" stroke="#4a4136" stroke-width="0.8" stroke-opacity="0.55"></rect>
  <rect x="20" y="18" width="8" height="6" fill="#7a2620" opacity="0.7"></rect>
  <g stroke="#4a4136" stroke-width="0.8" opacity="0.45"><line x1="150" y1="21" x2="166" y2="21"></line><line x1="178" y1="21" x2="194" y2="21"></line><line x1="206" y1="21" x2="222" y2="21"></line></g>
  <g fill="#4a4136" opacity="0.4"><circle cx="280" cy="21" r="2"></circle><circle cx="290" cy="21" r="2"></circle><circle cx="300" cy="21" r="2"></circle></g>

  <line x1="156" y1="44" x2="156" y2="178" stroke="#7a2620" stroke-width="0.5" stroke-dasharray="3 3" opacity="0.35"></line>

  
  <rect x="14" y="48" width="120" height="10" fill="#1a1612" opacity="0.10"></rect>
  <rect x="14" y="62" width="92" height="10" fill="#7a2620" opacity="0.18"></rect>
  <g fill="#1a1612" opacity="0.06">
    <rect x="14" y="84" width="128" height="4"></rect><rect x="14" y="92" width="128" height="4"></rect><rect x="14" y="100" width="120" height="4"></rect><rect x="14" y="108" width="128" height="4"></rect>
  </g>
  <rect x="14" y="124" width="58" height="12" rx="6" fill="#7a2620" opacity="0.16" stroke="#7a2620" stroke-width="0.8" stroke-opacity="0.6"></rect>
  <rect x="78" y="124" width="64" height="12" rx="6" fill="#7a2620" opacity="0.16" stroke="#7a2620" stroke-width="0.8" stroke-opacity="0.6"></rect>

  
  <rect x="168" y="48" width="138" height="38" fill="#1a1612" opacity="0.08" stroke="#4a4136" stroke-width="0.8" stroke-opacity="0.55"></rect>
  <rect x="174" y="54" width="8" height="8" fill="#4a4136" opacity="0.4"></rect>
  <rect x="174" y="66" width="70" height="5" fill="#1a1612" opacity="0.14"></rect>
  <rect x="174" y="76" width="36" height="6" rx="3" fill="#7a2620" opacity="0.45"></rect>

  <rect x="168" y="92" width="138" height="38" fill="#7a2620" opacity="0.10" stroke="#7a2620" stroke-width="1.1" stroke-opacity="0.8"></rect>
  <rect x="174" y="98" width="8" height="8" fill="#7a2620" opacity="0.5"></rect>
  <rect x="174" y="110" width="70" height="5" fill="#1a1612" opacity="0.16"></rect>
  <rect x="174" y="120" width="36" height="6" rx="3" fill="#7a2620" opacity="0.5"></rect>

  <rect x="168" y="136" width="138" height="38" fill="#1a1612" opacity="0.08" stroke="#4a4136" stroke-width="0.8" stroke-opacity="0.55"></rect>
  <rect x="174" y="142" width="8" height="8" fill="#4a4136" opacity="0.4"></rect>
  <rect x="174" y="154" width="70" height="5" fill="#1a1612" opacity="0.14"></rect>
  <rect x="174" y="164" width="36" height="6" rx="3" fill="#7a2620" opacity="0.45"></rect>

  
  <text x="160" y="9.5" text-anchor="middle" font-family="&#39;JetBrains Mono&#39;, monospace" font-size="6" fill="#7a2620" letter-spacing="2" opacity="0.85">WIREFRAME · ESBOÇO</text>
  <text x="74" y="150" text-anchor="middle" font-family="&#39;JetBrains Mono&#39;, monospace" font-size="5.5" fill="#8b7f6e" letter-spacing="1.5" opacity="0.7">ATALHOS · 2 PILLS</text>
  <text x="237" y="190" text-anchor="middle" font-family="&#39;EB Garamond&#39;, serif" font-style="italic" font-size="8" fill="#8b7f6e" opacity="0.8">cartões de módulo</text>
</svg>