<svg xmlns="http://www.w3.org/2000/svg" viewBox="0 0 2400 800" width="2400" height="800" role="img" aria-label="Sports Experience — Copa do Mundo 2022 DirecTV — capa 3:1">
  <defs>
    <!-- Background: dark with red/gold accents -->
    <linearGradient id="spBg" x1="0" y1="0" x2="1" y2="1">
      <stop offset="0%" stop-color="#0E0508"/>
      <stop offset="50%" stop-color="#180A0E"/>
      <stop offset="100%" stop-color="#1E0F09"/>
    </linearGradient>
    <linearGradient id="spRed" x1="0" y1="0" x2="1" y2="1">
      <stop offset="0%" stop-color="#E50914"/>
      <stop offset="100%" stop-color="#B0060F"/>
    </linearGradient>
    <linearGradient id="spGold" x1="0" y1="0" x2="1" y2="1">
      <stop offset="0%" stop-color="#F2B23A"/>
      <stop offset="100%" stop-color="#D89324"/>
    </linearGradient>
    <linearGradient id="spGrad" x1="0" y1="0" x2="1" y2="0">
      <stop offset="0%" stop-color="#E50914"/>
      <stop offset="100%" stop-color="#F2B23A"/>
    </linearGradient>
    <linearGradient id="spPanel" x1="0" y1="0" x2="0" y2="1">
      <stop offset="0%" stop-color="rgba(255,255,255,.07)"/>
      <stop offset="100%" stop-color="rgba(255,255,255,.02)"/>
    </linearGradient>
    <linearGradient id="spField" x1="0" y1="0" x2="0" y2="1">
      <stop offset="0%" stop-color="#0E5C2F"/>
      <stop offset="100%" stop-color="#073F1F"/>
    </linearGradient>
    <radialGradient id="spGlowR" cx="50%" cy="50%" r="50%">
      <stop offset="0%" stop-color="rgba(229,9,20,0.40)"/>
      <stop offset="100%" stop-color="rgba(229,9,20,0)"/>
    </radialGradient>
    <radialGradient id="spGlowG" cx="50%" cy="50%" r="50%">
      <stop offset="0%" stop-color="rgba(242,178,58,0.38)"/>
      <stop offset="100%" stop-color="rgba(242,178,58,0)"/>
    </radialGradient>
  </defs>

  <!-- Background -->
  <rect width="2400" height="800" fill="url(#spBg)"/>
  <circle cx="280"  cy="140" r="460" fill="url(#spGlowR)"/>
  <circle cx="2120" cy="680" r="500" fill="url(#spGlowG)"/>
  <circle cx="1400" cy="80"  r="280" fill="url(#spGlowG)" opacity=".5"/>

  <!-- Diagonal stripe accent -->
  <polygon points="0,800 1200,800 1700,0 1500,0" fill="rgba(229,9,20,.06)"/>
  <polygon points="1200,800 1900,800 2400,0 2200,0" fill="rgba(242,178,58,.05)"/>

  <!-- Grid noise -->
  <g stroke="rgba(255,255,255,.03)" stroke-width="1">
    <line x1="0" y1="200" x2="2400" y2="200"/>
    <line x1="0" y1="400" x2="2400" y2="400"/>
    <line x1="0" y1="600" x2="2400" y2="600"/>
    <line x1="600"  y1="0" x2="600"  y2="800"/>
    <line x1="1200" y1="0" x2="1200" y2="800"/>
    <line x1="1800" y1="0" x2="1800" y2="800"/>
  </g>

  <!-- ============================================ -->
  <!-- LEFT — Brand block                           -->
  <!-- ============================================ -->

  <!-- Eyebrow badge -->
  <g transform="translate(120,120)">
    <rect width="380" height="44" rx="22" fill="rgba(229,9,20,.16)" stroke="rgba(229,9,20,.55)"/>
    <circle cx="24" cy="22" r="6" fill="#E50914"/>
    <circle cx="24" cy="22" r="11" fill="none" stroke="#E50914" stroke-width="1" opacity=".5"/>
    <text x="48" y="28" fill="#ffb0b6" font-family="Inter, sans-serif" font-size="13" letter-spacing="3" font-weight="700">CASE · DIRECTV · COPA DO MUNDO 2022</text>
  </g>

  <!-- Title -->
  <text x="120" y="228" font-family="Inter, sans-serif" font-size="56" font-weight="800" letter-spacing="-1.5" fill="#fff">Sports<tspan fill="url(#spGrad)"> Experience</tspan></text>

  <!-- Subtitle -->
  <text x="120" y="278" fill="#E8E0DC" font-family="Inter, sans-serif" font-size="24" font-weight="600">Hub multiplataforma · mobile · web · TV</text>
  <text x="120" y="310" fill="#A09690" font-family="Inter, sans-serif" font-size="16" font-weight="500">Dados oficiais FIFA em tempo real · Design System unificado · BR + LATAM</text>

  <!-- Stat strip -->
  <g transform="translate(120,360)">
    <!-- 3 plataformas -->
    <g>
      <text x="0"  y="42" font-family="Inter, sans-serif" font-size="56" font-weight="800" fill="url(#spGrad)">3</text>
      <text x="0"  y="68" fill="#A09690" font-family="Inter, sans-serif" font-size="12" letter-spacing="2" font-weight="700">PLATAFORMAS</text>
    </g>
    <!-- 64 jogos -->
    <g transform="translate(170,0)">
      <text x="0"  y="42" font-family="Inter, sans-serif" font-size="56" font-weight="800" fill="url(#spGrad)">64</text>
      <text x="0"  y="68" fill="#A09690" font-family="Inter, sans-serif" font-size="12" letter-spacing="2" font-weight="700">JOGOS DA COPA</text>
    </g>
    <!-- 32 seleções -->
    <g transform="translate(370,0)">
      <text x="0"  y="42" font-family="Inter, sans-serif" font-size="56" font-weight="800" fill="url(#spGrad)">32</text>
      <text x="0"  y="68" fill="#A09690" font-family="Inter, sans-serif" font-size="12" letter-spacing="2" font-weight="700">SELEÇÕES</text>
    </g>
  </g>

  <!-- Live match summary card -->
  <g transform="translate(120,490)">
    <rect width="540" height="180" rx="18" fill="url(#spPanel)" stroke="rgba(242,178,58,.35)"/>

    <!-- LIVE pill -->
    <g transform="translate(20,18)">
      <rect width="74" height="22" rx="11" fill="url(#spRed)"/>
      <circle cx="14" cy="11" r="4" fill="#fff"/>
      <text x="38" y="15" fill="#fff" font-family="Inter, sans-serif" font-size="11" font-weight="800" letter-spacing="2">LIVE</text>
    </g>
    <!-- Group label -->
    <text x="108" y="34" fill="#A09690" font-family="Inter, sans-serif" font-size="11" letter-spacing="2.5" font-weight="700">GRUPO G · 2ª RODADA · 76'</text>

    <!-- Match line -->
    <g transform="translate(20,60)">
      <!-- BRA -->
      <circle cx="32" cy="40" r="28" fill="#FED41E"/>
      <circle cx="32" cy="40" r="28" fill="none" stroke="#009C3B" stroke-width="6"/>
      <text x="32" y="45" text-anchor="middle" fill="#002776" font-family="Inter, sans-serif" font-size="14" font-weight="800">BRA</text>

      <text x="76" y="48" fill="#fff" font-family="Inter, sans-serif" font-size="22" font-weight="700">Brasil</text>
      <text x="200" y="48" fill="#fff" font-family="Inter, sans-serif" font-size="44" font-weight="800">2</text>

      <!-- score divider -->
      <text x="248" y="48" text-anchor="middle" fill="#A09690" font-family="Inter, sans-serif" font-size="34" font-weight="500">·</text>

      <text x="270" y="48" fill="#fff" font-family="Inter, sans-serif" font-size="44" font-weight="800">1</text>
      <text x="324" y="48" fill="#fff" font-family="Inter, sans-serif" font-size="22" font-weight="700">Suíça</text>

      <!-- SUI -->
      <circle cx="468" cy="40" r="28" fill="#DA291C"/>
      <path d="M460 32 h16 v6 h6 v4 h-6 v6 h-16 v-6 h-6 v-4 h6 z" fill="#fff"/>
    </g>

    <!-- mini stat bars -->
    <g transform="translate(20,130)">
      <text x="0"   y="0"  fill="#A09690" font-family="Inter, sans-serif" font-size="10" letter-spacing="1.5" font-weight="700">POSSE</text>
      <rect x="0"   y="8"  width="220" height="6" rx="3" fill="rgba(255,255,255,.10)"/>
      <rect x="0"   y="8"  width="138" height="6" rx="3" fill="url(#spGrad)"/>
      <text x="220" y="6"  text-anchor="end" fill="#fff" font-family="Inter, sans-serif" font-size="11" font-weight="700">63%</text>

      <text x="0"   y="26" fill="#A09690" font-family="Inter, sans-serif" font-size="10" letter-spacing="1.5" font-weight="700">CHUTES</text>
      <rect x="0"   y="34" width="220" height="6" rx="3" fill="rgba(255,255,255,.10)"/>
      <rect x="0"   y="34" width="160" height="6" rx="3" fill="url(#spGold)"/>
      <text x="220" y="32" text-anchor="end" fill="#fff" font-family="Inter, sans-serif" font-size="11" font-weight="700">14</text>

      <!-- right side mini -->
      <text x="280" y="0"  fill="#A09690" font-family="Inter, sans-serif" font-size="10" letter-spacing="1.5" font-weight="700">XG</text>
      <rect x="280" y="8"  width="220" height="6" rx="3" fill="rgba(255,255,255,.10)"/>
      <rect x="280" y="8"  width="170" height="6" rx="3" fill="url(#spGrad)"/>
      <text x="500" y="6"  text-anchor="end" fill="#fff" font-family="Inter, sans-serif" font-size="11" font-weight="700">2.1</text>

      <text x="280" y="26" fill="#A09690" font-family="Inter, sans-serif" font-size="10" letter-spacing="1.5" font-weight="700">PASSES</text>
      <rect x="280" y="34" width="220" height="6" rx="3" fill="rgba(255,255,255,.10)"/>
      <rect x="280" y="34" width="194" height="6" rx="3" fill="url(#spGold)"/>
      <text x="500" y="32" text-anchor="end" fill="#fff" font-family="Inter, sans-serif" font-size="11" font-weight="700">88%</text>
    </g>
  </g>

  <!-- ============================================ -->
  <!-- CENTER — Stadium / pitch with heatmap        -->
  <!-- ============================================ -->
  <g transform="translate(740,150)">
    <rect x="-20" y="-30" width="640" height="540" rx="22" fill="rgba(255,255,255,.025)" stroke="rgba(242,178,58,.22)"/>

    <text x="0" y="-6" fill="#F2B23A" font-family="Inter, sans-serif" font-size="12" letter-spacing="3" font-weight="700">CAMPO · MAPA DE CALOR</text>
    <text x="600" y="-6" text-anchor="end" fill="#ffb0b6" font-family="Inter, sans-serif" font-size="12" letter-spacing="3" font-weight="700">REAL-TIME · FIFA</text>

    <!-- Field -->
    <g transform="translate(0,10)">
      <rect width="600" height="480" rx="14" fill="url(#spField)"/>
      <!-- Stripes -->
      <g fill="rgba(255,255,255,.04)">
        <rect y="0"   width="600" height="60"/>
        <rect y="120" width="600" height="60"/>
        <rect y="240" width="600" height="60"/>
        <rect y="360" width="600" height="60"/>
      </g>
      <!-- Border + middle line -->
      <rect x="10" y="10" width="580" height="460" rx="6" fill="none" stroke="rgba(255,255,255,.65)" stroke-width="2.5"/>
      <line x1="10" y1="240" x2="590" y2="240" stroke="rgba(255,255,255,.65)" stroke-width="2.5"/>
      <circle cx="300" cy="240" r="56" fill="none" stroke="rgba(255,255,255,.65)" stroke-width="2.5"/>
      <circle cx="300" cy="240" r="4" fill="rgba(255,255,255,.85)"/>
      <!-- Top goal area -->
      <rect x="200" y="10" width="200" height="80" fill="none" stroke="rgba(255,255,255,.6)" stroke-width="2.5"/>
      <rect x="250" y="10" width="100" height="36" fill="none" stroke="rgba(255,255,255,.6)" stroke-width="2.5"/>
      <circle cx="300" cy="106" r="3" fill="rgba(255,255,255,.85)"/>
      <path d="M250 80 a 50 50 0 0 0 100 0" fill="none" stroke="rgba(255,255,255,.55)" stroke-width="2.5"/>
      <!-- Bottom goal area -->
      <rect x="200" y="390" width="200" height="80" fill="none" stroke="rgba(255,255,255,.6)" stroke-width="2.5"/>
      <rect x="250" y="434" width="100" height="36" fill="none" stroke="rgba(255,255,255,.6)" stroke-width="2.5"/>
      <circle cx="300" cy="374" r="3" fill="rgba(255,255,255,.85)"/>
      <path d="M250 400 a 50 50 0 0 1 100 0" fill="none" stroke="rgba(255,255,255,.55)" stroke-width="2.5"/>

      <!-- Heat zones -->
      <circle cx="300" cy="170" r="100" fill="rgba(242,178,58,.32)"/>
      <circle cx="300" cy="170" r="60"  fill="rgba(242,178,58,.45)"/>
      <circle cx="300" cy="170" r="28"  fill="rgba(229,9,20,.65)"/>
      <circle cx="170" cy="300" r="75"  fill="rgba(242,178,58,.20)"/>
      <circle cx="170" cy="300" r="35"  fill="rgba(242,178,58,.40)"/>
      <circle cx="430" cy="320" r="65"  fill="rgba(242,178,58,.20)"/>
      <circle cx="430" cy="320" r="30"  fill="rgba(242,178,58,.40)"/>

      <!-- Players (gold dots = Brazil) -->
      <g>
        <circle cx="200" cy="380" r="10" fill="#FED41E" stroke="#002776" stroke-width="2.5"/>
        <circle cx="300" cy="360" r="10" fill="#FED41E" stroke="#002776" stroke-width="2.5"/>
        <circle cx="400" cy="380" r="10" fill="#FED41E" stroke="#002776" stroke-width="2.5"/>
        <circle cx="150" cy="270" r="10" fill="#FED41E" stroke="#002776" stroke-width="2.5"/>
        <circle cx="250" cy="290" r="10" fill="#FED41E" stroke="#002776" stroke-width="2.5"/>
        <circle cx="350" cy="290" r="10" fill="#FED41E" stroke="#002776" stroke-width="2.5"/>
        <circle cx="450" cy="270" r="10" fill="#FED41E" stroke="#002776" stroke-width="2.5"/>
        <circle cx="220" cy="180" r="10" fill="#FED41E" stroke="#002776" stroke-width="2.5"/>
        <circle cx="380" cy="180" r="10" fill="#FED41E" stroke="#002776" stroke-width="2.5"/>
        <circle cx="300" cy="120" r="10" fill="#FED41E" stroke="#002776" stroke-width="2.5"/>
        <circle cx="300" cy="450" r="10" fill="#FED41E" stroke="#002776" stroke-width="2.5"/>
      </g>

      <!-- Ball -->
      <circle cx="312" cy="174" r="9" fill="#fff" stroke="#000" stroke-width="1.5"/>
      <path d="M312 167 l3 4 l-2 5 l-4 0 l-2 -5 z" fill="#000" opacity=".55"/>

      <!-- Trajectory dotted line -->
      <path d="M 250 290 Q 290 220 312 174" fill="none" stroke="#fff" stroke-width="2" stroke-dasharray="6 5" opacity=".85"/>
    </g>
  </g>

  <!-- ============================================ -->
  <!-- RIGHT — multi-platform mockups (phone+TV)    -->
  <!-- ============================================ -->

  <!-- TV / Web display -->
  <g transform="translate(1450,150)">
    <!-- TV bezel -->
    <rect x="-12" y="-12" width="600" height="364" rx="22" fill="rgba(255,255,255,.04)" stroke="rgba(242,178,58,.35)"/>
    <rect width="576" height="340" rx="14" fill="#0B0508"/>
    <!-- header strip -->
    <rect width="576" height="42" rx="14" fill="rgba(229,9,20,.18)"/>
    <text x="20" y="28" fill="#fff" font-family="Inter, sans-serif" font-size="14" letter-spacing="2.5" font-weight="800">DTV · WORLD CUP HUB</text>
    <g transform="translate(440,12)">
      <rect width="58" height="20" rx="10" fill="url(#spRed)"/>
      <circle cx="12" cy="10" r="4" fill="#fff"/>
      <text x="34" y="14" fill="#fff" font-family="Inter, sans-serif" font-size="10" font-weight="800" letter-spacing="2">LIVE</text>
      <rect x="68" y="0" width="60" height="20" rx="10" fill="rgba(255,255,255,.10)"/>
      <text x="98" y="14" text-anchor="middle" fill="#fff" font-family="Inter, sans-serif" font-size="10" font-weight="700" letter-spacing="1.5">76'</text>
    </g>

    <!-- main video tile -->
    <g transform="translate(20,62)">
      <rect width="340" height="190" rx="10" fill="url(#spField)"/>
      <!-- score overlay -->
      <rect x="14" y="14" width="312" height="42" rx="8" fill="rgba(0,0,0,.55)"/>
      <text x="28" y="40" fill="#fff" font-family="Inter, sans-serif" font-size="14" font-weight="700">BRA</text>
      <text x="76" y="40" fill="#fff" font-family="Inter, sans-serif" font-size="20" font-weight="800">2</text>
      <text x="100" y="40" fill="#A09690" font-family="Inter, sans-serif" font-size="20" font-weight="500">·</text>
      <text x="112" y="40" fill="#fff" font-family="Inter, sans-serif" font-size="20" font-weight="800">1</text>
      <text x="142" y="40" fill="#fff" font-family="Inter, sans-serif" font-size="14" font-weight="700">SUI</text>
      <text x="312" y="40" text-anchor="end" fill="#F2B23A" font-family="Inter, sans-serif" font-size="11" font-weight="700" letter-spacing="1.5">76'  ·  GRUPO G</text>
      <!-- pitch suggestion -->
      <rect x="80" y="80" width="180" height="90" rx="6" fill="rgba(255,255,255,.06)" stroke="rgba(255,255,255,.16)"/>
      <line x1="170" y1="80" x2="170" y2="170" stroke="rgba(255,255,255,.4)" stroke-width="1.5"/>
      <circle cx="170" cy="125" r="14" fill="none" stroke="rgba(255,255,255,.4)" stroke-width="1.5"/>
      <!-- play icon -->
      <circle cx="170" cy="125" r="22" fill="rgba(255,255,255,.85)"/>
      <path d="M163 113 l16 12 l-16 12 z" fill="#0B0508"/>
    </g>

    <!-- Right sidebar w/ standings -->
    <g transform="translate(376,62)">
      <text x="0" y="14" fill="#F2B23A" font-family="Inter, sans-serif" font-size="10" letter-spacing="2" font-weight="700">CLASSIFICAÇÃO · GRUPO G</text>
      <!-- rows -->
      <g font-family="Inter, sans-serif" font-size="12" font-weight="600">
        <!-- 1st -->
        <rect x="0" y="24" width="180" height="32" rx="6" fill="rgba(242,178,58,.18)"/>
        <text x="10" y="44" fill="#F2B23A">1</text>
        <circle cx="32" cy="40" r="9" fill="#FED41E" stroke="#009C3B" stroke-width="2"/>
        <text x="48" y="44" fill="#fff">Brasil</text>
        <text x="170" y="44" text-anchor="end" fill="#fff" font-weight="800">6</text>
        <!-- 2nd -->
        <rect x="0" y="60"  width="180" height="32" rx="6" fill="rgba(255,255,255,.05)"/>
        <text x="10" y="80" fill="#A09690">2</text>
        <circle cx="32" cy="76" r="9" fill="#DA291C"/>
        <text x="48" y="80" fill="#fff">Suíça</text>
        <text x="170" y="80" text-anchor="end" fill="#fff" font-weight="800">3</text>
        <!-- 3rd -->
        <rect x="0" y="96"  width="180" height="32" rx="6" fill="rgba(255,255,255,.05)"/>
        <text x="10" y="116" fill="#A09690">3</text>
        <circle cx="32" cy="112" r="9" fill="#006847"/>
        <text x="48" y="116" fill="#fff">Camarões</text>
        <text x="170" y="116" text-anchor="end" fill="#fff" font-weight="800">1</text>
        <!-- 4th -->
        <rect x="0" y="132" width="180" height="32" rx="6" fill="rgba(255,255,255,.05)"/>
        <text x="10" y="152" fill="#A09690">4</text>
        <circle cx="32" cy="148" r="9" fill="#CE1126"/>
        <text x="48" y="152" fill="#fff">Sérvia</text>
        <text x="170" y="152" text-anchor="end" fill="#fff" font-weight="800">1</text>
      </g>
    </g>

    <!-- Bottom row mini cards -->
    <g transform="translate(20,266)">
      <rect width="106" height="62" rx="8" fill="rgba(255,255,255,.05)"/>
      <text x="12" y="22" fill="#A09690" font-family="Inter, sans-serif" font-size="9"  letter-spacing="1.5" font-weight="700">GOLS</text>
      <text x="12" y="48" fill="#fff" font-family="Inter, sans-serif" font-size="24" font-weight="800">3</text>

      <g transform="translate(118,0)">
        <rect width="106" height="62" rx="8" fill="rgba(255,255,255,.05)"/>
        <text x="12" y="22" fill="#A09690" font-family="Inter, sans-serif" font-size="9"  letter-spacing="1.5" font-weight="700">FALTAS</text>
        <text x="12" y="48" fill="#fff" font-family="Inter, sans-serif" font-size="24" font-weight="800">11</text>
      </g>

      <g transform="translate(236,0)">
        <rect width="106" height="62" rx="8" fill="rgba(255,255,255,.05)"/>
        <text x="12" y="22" fill="#A09690" font-family="Inter, sans-serif" font-size="9"  letter-spacing="1.5" font-weight="700">CARTÕES</text>
        <text x="12" y="48" fill="#fff" font-family="Inter, sans-serif" font-size="24" font-weight="800">4</text>
      </g>

      <g transform="translate(354,0)">
        <rect width="202" height="62" rx="8" fill="url(#spRed)" opacity=".85"/>
        <text x="12" y="22" fill="#fff" font-family="Inter, sans-serif" font-size="9"  letter-spacing="1.5" font-weight="800">PRÓXIMO</text>
        <text x="12" y="42" fill="#fff" font-family="Inter, sans-serif" font-size="14" font-weight="800">BRA × CMR</text>
        <text x="12" y="56" fill="#ffd6d9" font-family="Inter, sans-serif" font-size="10" font-weight="600">02 DEZ · 16:00 BRT</text>
      </g>
    </g>
  </g>

  <!-- Mobile phone mockup -->
  <g transform="translate(2090,90)">
    <!-- bezel -->
    <rect x="-8" y="-8" width="240" height="500" rx="34" fill="rgba(255,255,255,.05)" stroke="rgba(229,9,20,.45)"/>
    <rect width="224" height="484" rx="28" fill="#0B0508"/>
    <!-- notch -->
    <rect x="74" y="14" width="76" height="16" rx="8" fill="#000"/>

    <!-- status bar -->
    <text x="20"  y="50" fill="#A09690" font-family="Inter, sans-serif" font-size="10" font-weight="700">9:41</text>
    <g transform="translate(180,42)">
      <rect width="22" height="10" rx="2" fill="rgba(255,255,255,.65)"/>
      <rect x="24" y="3" width="2" height="4" rx="1" fill="rgba(255,255,255,.65)"/>
    </g>

    <!-- title -->
    <text x="20" y="80"  fill="#fff" font-family="Inter, sans-serif" font-size="16" font-weight="800">Copa do Mundo</text>
    <text x="20" y="98"  fill="#A09690" font-family="Inter, sans-serif" font-size="10" letter-spacing="1.5" font-weight="700">QATAR · 2022</text>

    <!-- LIVE card -->
    <g transform="translate(16,114)">
      <rect width="192" height="120" rx="14" fill="url(#spRed)"/>
      <rect x="12" y="12" width="48" height="18" rx="9" fill="rgba(0,0,0,.30)"/>
      <circle cx="22" cy="21" r="3.5" fill="#fff"/>
      <text x="40" y="25" fill="#fff" font-family="Inter, sans-serif" font-size="9" font-weight="800" letter-spacing="1.5">LIVE</text>
      <text x="180" y="25" text-anchor="end" fill="#ffd6d9" font-family="Inter, sans-serif" font-size="9" font-weight="700" letter-spacing="1.5">76'</text>
      <!-- BRA -->
      <circle cx="40" cy="64" r="14" fill="#FED41E" stroke="#009C3B" stroke-width="3"/>
      <text x="40" y="68" text-anchor="middle" fill="#002776" font-family="Inter, sans-serif" font-size="9" font-weight="800">BRA</text>
      <text x="62" y="68" fill="#fff" font-family="Inter, sans-serif" font-size="22" font-weight="800">2</text>
      <text x="86" y="68" fill="#ffd6d9" font-family="Inter, sans-serif" font-size="18" font-weight="500">·</text>
      <text x="98" y="68" fill="#fff" font-family="Inter, sans-serif" font-size="22" font-weight="800">1</text>
      <text x="120" y="68" fill="#fff" font-family="Inter, sans-serif" font-size="9" font-weight="800">SUI</text>
      <circle cx="156" cy="64" r="14" fill="#DA291C"/>
      <path d="M148 56 h16 v6 h6 v4 h-6 v6 h-16 v-6 h-6 v-4 h6 z" fill="#fff"/>
      <text x="12" y="106" fill="#fff" font-family="Inter, sans-serif" font-size="10" letter-spacing="1" font-weight="700">GRUPO G · 2ª RODADA</text>
    </g>

    <!-- Next matches list -->
    <text x="20" y="258" fill="#F2B23A" font-family="Inter, sans-serif" font-size="9" letter-spacing="2" font-weight="800">PRÓXIMOS</text>
    <g transform="translate(16,272)" font-family="Inter, sans-serif">
      <!-- m1 -->
      <rect width="192" height="44" rx="10" fill="rgba(255,255,255,.05)"/>
      <text x="12" y="20" fill="#A09690" font-size="9" letter-spacing="1.5" font-weight="700">28 NOV · 13:00</text>
      <text x="12" y="36" fill="#fff" font-size="12" font-weight="700">Argentina × México</text>
      <!-- m2 -->
      <rect y="52" width="192" height="44" rx="10" fill="rgba(255,255,255,.05)"/>
      <text x="12" y="72" fill="#A09690" font-size="9" letter-spacing="1.5" font-weight="700">29 NOV · 16:00</text>
      <text x="12" y="88" fill="#fff" font-size="12" font-weight="700">França × Tunísia</text>
      <!-- m3 -->
      <rect y="104" width="192" height="44" rx="10" fill="rgba(255,255,255,.05)"/>
      <text x="12" y="124" fill="#A09690" font-size="9" letter-spacing="1.5" font-weight="700">02 DEZ · 16:00</text>
      <text x="12" y="140" fill="#fff" font-size="12" font-weight="700">Brasil × Camarões</text>
    </g>

    <!-- Tab bar -->
    <g transform="translate(0,440)">
      <rect width="224" height="44" fill="rgba(255,255,255,.04)"/>
      <line x1="0" y1="0" x2="224" y2="0" stroke="rgba(255,255,255,.06)"/>
      <!-- 4 tabs -->
      <g font-family="Inter, sans-serif" font-size="8" font-weight="700" letter-spacing="1.5">
        <circle cx="32" cy="18" r="5" fill="url(#spGrad)"/>
        <text x="32" y="36" text-anchor="middle" fill="#F2B23A">HOME</text>

        <rect x="84" y="13" width="10" height="10" rx="2" fill="none" stroke="#6e645f" stroke-width="1.5"/>
        <text x="89" y="36" text-anchor="middle" fill="#6e645f">CAL</text>

        <path d="M140 13 l5 -3 l5 3 v8 l-5 3 l-5 -3 z" fill="none" stroke="#6e645f" stroke-width="1.5"/>
        <text x="145" y="36" text-anchor="middle" fill="#6e645f">STATS</text>

        <circle cx="201" cy="18" r="5" fill="none" stroke="#6e645f" stroke-width="1.5"/>
        <text x="201" y="36" text-anchor="middle" fill="#6e645f">PERFIL</text>
      </g>
    </g>
  </g>

  <!-- ============================================ -->
  <!-- Footer ribbon                                -->
  <!-- ============================================ -->
  <rect x="0" y="740" width="2400" height="60" fill="rgba(0,0,0,.30)"/>
  <text x="120" y="778" fill="#F2B23A" font-family="Inter, sans-serif" font-size="13" letter-spacing="4" font-weight="700">SPORTS EXPERIENCE · MOBILE · WEB · TV · DESIGN SYSTEM UNIFICADO · FIFA REAL-TIME DATA</text>
  <g transform="translate(2080,752)">
    <rect width="22" height="14" rx="3" fill="url(#spRed)"/>
    <text x="32" y="20" fill="#A09690" font-family="Inter, sans-serif" font-size="12" letter-spacing="2" font-weight="700">DIRECTV · COPA DO MUNDO 2022</text>
  </g>
</svg>
