<svg xmlns="http://www.w3.org/2000/svg" viewBox="0 0 2400 800" width="2400" height="800" role="img" aria-label="Gen.AI — Ecossistema de 9 POCs de IA generativa — capa 3:1">
  <defs>
    <!-- Background — deep purple/navy with violet/cyan AI accents -->
    <linearGradient id="gBg" x1="0" y1="0" x2="1" y2="1">
      <stop offset="0%" stop-color="#10081F"/>
      <stop offset="55%" stop-color="#1A0F36"/>
      <stop offset="100%" stop-color="#0B1A33"/>
    </linearGradient>
    <linearGradient id="gAI" x1="0" y1="0" x2="1" y2="1">
      <stop offset="0%" stop-color="#7c5cff"/>
      <stop offset="100%" stop-color="#4dd6ff"/>
    </linearGradient>
    <linearGradient id="gAIv" x1="0" y1="1" x2="0" y2="0">
      <stop offset="0%" stop-color="#7c5cff"/>
      <stop offset="100%" stop-color="#4dd6ff"/>
    </linearGradient>
    <linearGradient id="gPanel" x1="0" y1="0" x2="0" y2="1">
      <stop offset="0%" stop-color="rgba(255,255,255,.06)"/>
      <stop offset="100%" stop-color="rgba(255,255,255,.02)"/>
    </linearGradient>
    <radialGradient id="gGlow1" cx="50%" cy="50%" r="50%">
      <stop offset="0%" stop-color="rgba(124,92,255,0.45)"/>
      <stop offset="100%" stop-color="rgba(124,92,255,0)"/>
    </radialGradient>
    <radialGradient id="gGlow2" cx="50%" cy="50%" r="50%">
      <stop offset="0%" stop-color="rgba(77,214,255,0.40)"/>
      <stop offset="100%" stop-color="rgba(77,214,255,0)"/>
    </radialGradient>
    <filter id="gBlur" x="-20%" y="-20%" width="140%" height="140%">
      <feGaussianBlur stdDeviation="6"/>
    </filter>
  </defs>

  <!-- Background -->
  <rect width="2400" height="800" fill="url(#gBg)"/>
  <circle cx="320"  cy="160" r="480" fill="url(#gGlow1)"/>
  <circle cx="2150" cy="720" r="540" fill="url(#gGlow2)"/>
  <circle cx="1400" cy="120" r="320" fill="url(#gGlow2)" opacity=".55"/>

  <!-- Grid noise -->
  <g stroke="rgba(255,255,255,.03)" stroke-width="1">
    <line x1="0" y1="200" x2="2400" y2="200"/>
    <line x1="0" y1="400" x2="2400" y2="400"/>
    <line x1="0" y1="600" x2="2400" y2="600"/>
    <line x1="600"  y1="0" x2="600"  y2="800"/>
    <line x1="1200" y1="0" x2="1200" y2="800"/>
    <line x1="1800" y1="0" x2="1800" y2="800"/>
  </g>

  <!-- Diagonal accent line -->
  <line x1="0" y1="780" x2="2400" y2="40" stroke="url(#gAI)" stroke-width="1.5" opacity=".18"/>

  <!-- ============================================ -->
  <!-- LEFT — Brand block (title + badge + prompt)  -->
  <!-- ============================================ -->

  <!-- Eyebrow badge -->
  <g transform="translate(120,120)">
    <rect width="290" height="44" rx="22" fill="rgba(124,92,255,.14)" stroke="rgba(124,92,255,.55)"/>
    <circle cx="24" cy="22" r="6" fill="#7c5cff"/>
    <circle cx="24" cy="22" r="11" fill="none" stroke="#7c5cff" stroke-width="1" opacity=".5"/>
    <text x="48" y="28" fill="#bda9ff" font-family="Inter, sans-serif" font-size="13" letter-spacing="3" font-weight="700">CASE · ACCENTURE · ONE STUDIO</text>
  </g>

  <!-- Title "Gen.AI" big gradient -->
  <text x="120" y="280" font-family="Inter, sans-serif" font-size="120" font-weight="800" letter-spacing="-3" fill="url(#gAI)">Gen.AI</text>

  <!-- Subtitle -->
  <text x="120" y="335" fill="#E6EAF6" font-family="Inter, sans-serif" font-size="28" font-weight="600">Ecossistema de 9 POCs de IA generativa</text>
  <text x="120" y="370" fill="#A6AEC7" font-family="Inter, sans-serif" font-size="18" font-weight="500">Lead Product Designer · Design System unificado · 3 meses · end-to-end</text>

  <!-- Stat strip — 4 columns -->
  <g transform="translate(120,410)">
    <!-- 9 POCs -->
    <g>
      <text x="0"  y="42" font-family="Inter, sans-serif" font-size="56" font-weight="800" fill="url(#gAI)">9</text>
      <text x="0"  y="68" fill="#A6AEC7" font-family="Inter, sans-serif" font-size="12" letter-spacing="2" font-weight="700">POCs DE IA</text>
    </g>
    <!-- 1 DS -->
    <g transform="translate(160,0)">
      <text x="0"  y="42" font-family="Inter, sans-serif" font-size="56" font-weight="800" fill="url(#gAI)">1</text>
      <text x="0"  y="68" fill="#A6AEC7" font-family="Inter, sans-serif" font-size="12" letter-spacing="2" font-weight="700">DESIGN SYSTEM</text>
    </g>
    <!-- 3 meses -->
    <g transform="translate(360,0)">
      <text x="0"  y="42" font-family="Inter, sans-serif" font-size="56" font-weight="800" fill="url(#gAI)">3m</text>
      <text x="0"  y="68" fill="#A6AEC7" font-family="Inter, sans-serif" font-size="12" letter-spacing="2" font-weight="700">DISCOVERY → HANDOFF</text>
    </g>
    <!-- 1 designer -->
    <g transform="translate(620,0)">
      <text x="0"  y="42" font-family="Inter, sans-serif" font-size="56" font-weight="800" fill="url(#gAI)">1</text>
      <text x="0"  y="68" fill="#A6AEC7" font-family="Inter, sans-serif" font-size="12" letter-spacing="2" font-weight="700">DESIGNER · END-TO-END</text>
    </g>
  </g>

  <!-- Prompt mockup card (lower-left) -->
  <g transform="translate(120,540)">
    <rect width="520" height="190" rx="18" fill="url(#gPanel)" stroke="rgba(124,92,255,.35)"/>
    <!-- chip "PROMPT" -->
    <rect x="20" y="20" width="92" height="22" rx="11" fill="rgba(124,92,255,.22)"/>
    <text x="66" y="35" text-anchor="middle" fill="#bda9ff" font-family="Inter, sans-serif" font-size="11" font-weight="700" letter-spacing="1.5">PROMPT</text>
    <!-- chip "MULTIMODAL" -->
    <rect x="120" y="20" width="118" height="22" rx="11" fill="rgba(77,214,255,.18)"/>
    <text x="179" y="35" text-anchor="middle" fill="#7ee4ff" font-family="Inter, sans-serif" font-size="11" font-weight="700" letter-spacing="1.5">MULTIMODAL</text>
    <!-- prompt text lines -->
    <rect x="20" y="62"  width="480" height="10" rx="5" fill="rgba(255,255,255,.18)"/>
    <rect x="20" y="80"  width="420" height="10" rx="5" fill="rgba(255,255,255,.12)"/>
    <rect x="20" y="98"  width="370" height="10" rx="5" fill="rgba(255,255,255,.10)"/>
    <!-- response shimmer bar -->
    <rect x="20" y="128" width="120" height="22" rx="11" fill="rgba(255,255,255,.06)"/>
    <text x="80" y="143" text-anchor="middle" fill="#A6AEC7" font-family="Inter, sans-serif" font-size="11" font-weight="700" letter-spacing="1.5">RESPONSE</text>
    <rect x="148" y="128" width="290" height="22" rx="11" fill="url(#gAI)" opacity=".25"/>
    <!-- send button -->
    <rect x="430" y="150" width="70" height="26" rx="13" fill="url(#gAI)"/>
    <text x="465" y="167" text-anchor="middle" fill="#0E0820" font-family="Inter, sans-serif" font-size="11" font-weight="800" letter-spacing="2">SEND ↵</text>
  </g>

  <!-- ============================================ -->
  <!-- RIGHT — 9 POCs grid (3×3 tiles)              -->
  <!-- ============================================ -->
  <g transform="translate(1380,120)">
    <!-- panel container -->
    <rect x="-20" y="-20" width="940" height="600" rx="22" fill="rgba(255,255,255,.025)" stroke="rgba(124,92,255,.22)"/>

    <!-- header strip -->
    <text x="10" y="14" fill="#bda9ff" font-family="Inter, sans-serif" font-size="12" letter-spacing="3" font-weight="700">ECOSSISTEMA · 9 POCs</text>
    <text x="890" y="14" text-anchor="end" fill="#7ee4ff" font-family="Inter, sans-serif" font-size="12" letter-spacing="3" font-weight="700">UNIFIED DS · v1</text>

    <!-- 3×3 grid — each tile 280×170 with 20 gutter -->
    <!-- Row 1 -->
    <g transform="translate(0,40)">
      <!-- Tile 1 — Incident Alchemist -->
      <g>
        <rect width="280" height="170" rx="14" fill="url(#gPanel)" stroke="rgba(124,92,255,.35)"/>
        <rect x="14" y="14" width="36" height="36" rx="8" fill="rgba(124,92,255,.22)"/>
        <!-- bell icon -->
        <path d="M32 24 c5 0 9 4 9 9 v6 l3 4 h-24 l3-4 v-6 c0-5 4-9 9-9 z M28 46 a4 4 0 0 0 8 0" fill="none" stroke="#bda9ff" stroke-width="2" stroke-linecap="round" stroke-linejoin="round"/>
        <text x="14" y="84" fill="#E6EAF6" font-family="Inter, sans-serif" font-size="16" font-weight="700">Incident Alchemist</text>
        <text x="14" y="106" fill="#A6AEC7" font-family="Inter, sans-serif" font-size="11" letter-spacing="1.5" font-weight="600">ROOT-CAUSE · LOGS</text>
        <!-- mini chart -->
        <polyline fill="none" stroke="url(#gAI)" stroke-width="2.5" stroke-linecap="round"
                  points="14,150 50,138 86,144 122,128 158,135 194,118 230,124 266,108"/>
        <rect x="170" y="80" width="96" height="18" rx="9" fill="rgba(225,79,79,.18)"/>
        <text x="218" y="93" text-anchor="middle" fill="#ff8c8c" font-family="Inter, sans-serif" font-size="10" font-weight="700">● P1 · CRITICAL</text>
      </g>

      <!-- Tile 2 — Code Assistant -->
      <g transform="translate(300,0)">
        <rect width="280" height="170" rx="14" fill="url(#gPanel)" stroke="rgba(124,92,255,.35)"/>
        <rect x="14" y="14" width="36" height="36" rx="8" fill="rgba(77,214,255,.18)"/>
        <!-- code icon < / > -->
        <path d="M22 28 l-6 6 l6 6 M42 28 l6 6 l-6 6 M36 22 l-8 20" fill="none" stroke="#7ee4ff" stroke-width="2" stroke-linecap="round" stroke-linejoin="round"/>
        <text x="14" y="84" fill="#E6EAF6" font-family="Inter, sans-serif" font-size="16" font-weight="700">Code Assistant</text>
        <text x="14" y="106" fill="#A6AEC7" font-family="Inter, sans-serif" font-size="11" letter-spacing="1.5" font-weight="600">PAIR-PROG · IDE</text>
        <!-- code mock -->
        <rect x="14" y="118" width="252" height="6" rx="3" fill="rgba(77,214,255,.5)"/>
        <rect x="14" y="130" width="180" height="6" rx="3" fill="rgba(255,255,255,.18)"/>
        <rect x="14" y="142" width="220" height="6" rx="3" fill="rgba(124,92,255,.5)"/>
        <rect x="14" y="154" width="130" height="6" rx="3" fill="rgba(255,255,255,.12)"/>
      </g>

      <!-- Tile 3 — Contract Explorer -->
      <g transform="translate(600,0)">
        <rect width="280" height="170" rx="14" fill="url(#gPanel)" stroke="rgba(124,92,255,.35)"/>
        <rect x="14" y="14" width="36" height="36" rx="8" fill="rgba(124,92,255,.22)"/>
        <!-- doc icon -->
        <path d="M22 22 h16 l8 8 v18 a2 2 0 0 1 -2 2 h-22 a2 2 0 0 1 -2 -2 v-24 a2 2 0 0 1 2 -2 z M38 22 v8 h8" fill="none" stroke="#bda9ff" stroke-width="2" stroke-linecap="round" stroke-linejoin="round"/>
        <text x="14" y="84" fill="#E6EAF6" font-family="Inter, sans-serif" font-size="16" font-weight="700">Contract Explorer</text>
        <text x="14" y="106" fill="#A6AEC7" font-family="Inter, sans-serif" font-size="11" letter-spacing="1.5" font-weight="600">RAG · LEGAL DOCS</text>
        <!-- highlight blocks (clauses) -->
        <rect x="14" y="120" width="252" height="8" rx="3" fill="rgba(255,255,255,.12)"/>
        <rect x="14" y="120" width="92"  height="8" rx="3" fill="url(#gAI)" opacity=".8"/>
        <rect x="14" y="135" width="252" height="8" rx="3" fill="rgba(255,255,255,.12)"/>
        <rect x="80" y="135" width="120" height="8" rx="3" fill="url(#gAI)" opacity=".6"/>
        <rect x="14" y="150" width="252" height="8" rx="3" fill="rgba(255,255,255,.12)"/>
        <rect x="40" y="150" width="60"  height="8" rx="3" fill="url(#gAI)" opacity=".85"/>
      </g>
    </g>

    <!-- Row 2 -->
    <g transform="translate(0,230)">
      <!-- Tile 4 — Campaign Genius -->
      <g>
        <rect width="280" height="170" rx="14" fill="url(#gPanel)" stroke="rgba(124,92,255,.35)"/>
        <rect x="14" y="14" width="36" height="36" rx="8" fill="rgba(77,214,255,.18)"/>
        <!-- spark/star icon -->
        <path d="M32 18 l3 8 l8 3 l-8 3 l-3 8 l-3 -8 l-8 -3 l8 -3 z" fill="none" stroke="#7ee4ff" stroke-width="2" stroke-linejoin="round"/>
        <text x="14" y="84" fill="#E6EAF6" font-family="Inter, sans-serif" font-size="16" font-weight="700">Campaign Genius</text>
        <text x="14" y="106" fill="#A6AEC7" font-family="Inter, sans-serif" font-size="11" letter-spacing="1.5" font-weight="600">CREATIVE · MARKETING</text>
        <!-- 3 swatches -->
        <rect x="14"  y="120" width="78" height="40" rx="8" fill="url(#gAI)" opacity=".85"/>
        <rect x="101" y="120" width="78" height="40" rx="8" fill="rgba(124,92,255,.55)"/>
        <rect x="188" y="120" width="78" height="40" rx="8" fill="rgba(77,214,255,.55)"/>
      </g>

      <!-- Tile 5 — Call Analysis -->
      <g transform="translate(300,0)">
        <rect width="280" height="170" rx="14" fill="url(#gPanel)" stroke="rgba(124,92,255,.35)"/>
        <rect x="14" y="14" width="36" height="36" rx="8" fill="rgba(124,92,255,.22)"/>
        <!-- mic icon -->
        <path d="M32 20 a4 4 0 0 1 4 4 v10 a4 4 0 0 1 -8 0 v-10 a4 4 0 0 1 4 -4 z M24 36 a8 8 0 0 0 16 0 M32 44 v6" fill="none" stroke="#bda9ff" stroke-width="2" stroke-linecap="round"/>
        <text x="14" y="84" fill="#E6EAF6" font-family="Inter, sans-serif" font-size="16" font-weight="700">Call Analysis</text>
        <text x="14" y="106" fill="#A6AEC7" font-family="Inter, sans-serif" font-size="11" letter-spacing="1.5" font-weight="600">SENTIMENT · NLP</text>
        <!-- waveform -->
        <g fill="url(#gAIv)">
          <rect x="14"  y="135" width="6" height="22" rx="3"/>
          <rect x="26"  y="125" width="6" height="32" rx="3"/>
          <rect x="38"  y="130" width="6" height="27" rx="3"/>
          <rect x="50"  y="120" width="6" height="37" rx="3"/>
          <rect x="62"  y="115" width="6" height="42" rx="3"/>
          <rect x="74"  y="123" width="6" height="34" rx="3"/>
          <rect x="86"  y="118" width="6" height="39" rx="3"/>
          <rect x="98"  y="128" width="6" height="29" rx="3"/>
          <rect x="110" y="132" width="6" height="25" rx="3"/>
          <rect x="122" y="118" width="6" height="39" rx="3"/>
          <rect x="134" y="125" width="6" height="32" rx="3"/>
          <rect x="146" y="130" width="6" height="27" rx="3"/>
          <rect x="158" y="120" width="6" height="37" rx="3"/>
          <rect x="170" y="124" width="6" height="33" rx="3"/>
          <rect x="182" y="116" width="6" height="41" rx="3"/>
          <rect x="194" y="128" width="6" height="29" rx="3"/>
          <rect x="206" y="132" width="6" height="25" rx="3"/>
          <rect x="218" y="120" width="6" height="37" rx="3"/>
          <rect x="230" y="126" width="6" height="31" rx="3"/>
          <rect x="242" y="130" width="6" height="27" rx="3"/>
          <rect x="254" y="135" width="6" height="22" rx="3"/>
        </g>
      </g>

      <!-- Tile 6 — Deploy Check -->
      <g transform="translate(600,0)">
        <rect width="280" height="170" rx="14" fill="url(#gPanel)" stroke="rgba(124,92,255,.35)"/>
        <rect x="14" y="14" width="36" height="36" rx="8" fill="rgba(77,214,255,.18)"/>
        <!-- check shield -->
        <path d="M32 18 l12 5 v8 c0 8 -6 13 -12 16 c-6 -3 -12 -8 -12 -16 v-8 z M27 32 l4 4 l8 -8" fill="none" stroke="#7ee4ff" stroke-width="2" stroke-linecap="round" stroke-linejoin="round"/>
        <text x="14" y="84" fill="#E6EAF6" font-family="Inter, sans-serif" font-size="16" font-weight="700">Deploy Check</text>
        <text x="14" y="106" fill="#A6AEC7" font-family="Inter, sans-serif" font-size="11" letter-spacing="1.5" font-weight="600">CI/CD · GUARDRAILS</text>
        <!-- checklist -->
        <g font-family="Inter, sans-serif" font-size="11" font-weight="600">
          <circle cx="22" cy="128" r="6" fill="#2BB573"/>
          <path d="M19 128 l2 2 l4 -4" fill="none" stroke="#0E0820" stroke-width="1.5" stroke-linecap="round"/>
          <text x="38" y="132" fill="#E6EAF6">Lint &amp; types</text>
          <circle cx="22" cy="146" r="6" fill="#2BB573"/>
          <path d="M19 146 l2 2 l4 -4" fill="none" stroke="#0E0820" stroke-width="1.5" stroke-linecap="round"/>
          <text x="38" y="150" fill="#E6EAF6">Unit · 98%</text>
          <circle cx="170" cy="128" r="6" fill="#E3A93A"/>
          <text x="186" y="132" fill="#E6EAF6">E2E · 3 warn</text>
          <circle cx="170" cy="146" r="6" fill="#2BB573"/>
          <path d="M167 146 l2 2 l4 -4" fill="none" stroke="#0E0820" stroke-width="1.5" stroke-linecap="round"/>
          <text x="186" y="150" fill="#E6EAF6">Security ok</text>
        </g>
      </g>
    </g>

    <!-- Row 3 -->
    <g transform="translate(0,420)">
      <!-- Tile 7 — Test Insights -->
      <g>
        <rect width="280" height="170" rx="14" fill="url(#gPanel)" stroke="rgba(124,92,255,.35)"/>
        <rect x="14" y="14" width="36" height="36" rx="8" fill="rgba(124,92,255,.22)"/>
        <!-- bar chart icon -->
        <path d="M20 44 v-12 M28 44 v-20 M36 44 v-8 M44 44 v-24 M20 48 h26" fill="none" stroke="#bda9ff" stroke-width="2" stroke-linecap="round"/>
        <text x="14" y="84" fill="#E6EAF6" font-family="Inter, sans-serif" font-size="16" font-weight="700">Test Insights</text>
        <text x="14" y="106" fill="#A6AEC7" font-family="Inter, sans-serif" font-size="11" letter-spacing="1.5" font-weight="600">QA · COVERAGE</text>
        <!-- gauge -->
        <g transform="translate(140,138)">
          <path d="M -50 0 a 50 50 0 0 1 100 0" fill="none" stroke="rgba(255,255,255,.08)" stroke-width="10" stroke-linecap="round"/>
          <path d="M -50 0 a 50 50 0 0 1 78 -31" fill="none" stroke="url(#gAI)" stroke-width="10" stroke-linecap="round"/>
          <text x="0" y="-4" text-anchor="middle" fill="#fff" font-family="Inter, sans-serif" font-size="22" font-weight="800">87%</text>
        </g>
      </g>

      <!-- Tile 8 — Impact Analysis -->
      <g transform="translate(300,0)">
        <rect width="280" height="170" rx="14" fill="url(#gPanel)" stroke="rgba(124,92,255,.35)"/>
        <rect x="14" y="14" width="36" height="36" rx="8" fill="rgba(77,214,255,.18)"/>
        <!-- graph nodes icon -->
        <g fill="none" stroke="#7ee4ff" stroke-width="2" stroke-linecap="round">
          <circle cx="24" cy="26" r="3"/>
          <circle cx="40" cy="22" r="3"/>
          <circle cx="44" cy="38" r="3"/>
          <circle cx="28" cy="42" r="3"/>
          <line x1="27" y1="26" x2="37" y2="22"/>
          <line x1="40" y1="25" x2="44" y2="35"/>
          <line x1="41" y1="40" x2="31" y2="42"/>
          <line x1="26" y1="29" x2="28" y2="39"/>
        </g>
        <text x="14" y="84" fill="#E6EAF6" font-family="Inter, sans-serif" font-size="16" font-weight="700">Impact Analysis</text>
        <text x="14" y="106" fill="#A6AEC7" font-family="Inter, sans-serif" font-size="11" letter-spacing="1.5" font-weight="600">GRAPH · DEPENDENCY</text>
        <!-- node graph -->
        <g>
          <line x1="40"  y1="148" x2="100" y2="128" stroke="rgba(77,214,255,.55)" stroke-width="2"/>
          <line x1="100" y1="128" x2="160" y2="150" stroke="rgba(77,214,255,.55)" stroke-width="2"/>
          <line x1="100" y1="128" x2="200" y2="125" stroke="rgba(124,92,255,.55)" stroke-width="2"/>
          <line x1="160" y1="150" x2="240" y2="140" stroke="rgba(124,92,255,.55)" stroke-width="2"/>
          <circle cx="40"  cy="148" r="7" fill="url(#gAI)"/>
          <circle cx="100" cy="128" r="9" fill="#7c5cff"/>
          <circle cx="160" cy="150" r="7" fill="#4dd6ff"/>
          <circle cx="200" cy="125" r="6" fill="#4dd6ff"/>
          <circle cx="240" cy="140" r="6" fill="#7c5cff"/>
        </g>
      </g>

      <!-- Tile 9 — SC Copilot -->
      <g transform="translate(600,0)">
        <rect width="280" height="170" rx="14" fill="url(#gPanel)" stroke="rgba(124,92,255,.35)"/>
        <rect x="14" y="14" width="36" height="36" rx="8" fill="rgba(124,92,255,.22)"/>
        <!-- chat icon -->
        <path d="M18 24 h28 a2 2 0 0 1 2 2 v14 a2 2 0 0 1 -2 2 h-18 l-8 6 v-6 h-2 a2 2 0 0 1 -2 -2 v-14 a2 2 0 0 1 2 -2 z" fill="none" stroke="#bda9ff" stroke-width="2" stroke-linejoin="round"/>
        <text x="14" y="84" fill="#E6EAF6" font-family="Inter, sans-serif" font-size="16" font-weight="700">SC Copilot</text>
        <text x="14" y="106" fill="#A6AEC7" font-family="Inter, sans-serif" font-size="11" letter-spacing="1.5" font-weight="600">SUPPLY CHAIN · ASSISTANT</text>
        <!-- chat bubbles -->
        <rect x="14"  y="122" width="170" height="14" rx="7" fill="rgba(255,255,255,.10)"/>
        <rect x="14"  y="140" width="110" height="14" rx="7" fill="rgba(255,255,255,.08)"/>
        <rect x="96"  y="158" width="170" height="14" rx="7" fill="url(#gAI)" opacity=".8"/>
      </g>
    </g>
  </g>

  <!-- ============================================ -->
  <!-- Footer ribbon                                -->
  <!-- ============================================ -->
  <rect x="0" y="740" width="2400" height="60" fill="rgba(0,0,0,.25)"/>
  <text x="120" y="778" fill="#bda9ff" font-family="Inter, sans-serif" font-size="13" letter-spacing="4" font-weight="700">PRODUCT AI · LLM-DRIVEN INTERFACES · DESIGN SYSTEM · DISCOVERY → HANDOFF</text>
  <g transform="translate(2050,752)">
    <circle cx="0" cy="14" r="6" fill="#7c5cff"/>
    <circle cx="22" cy="14" r="6" fill="#4dd6ff"/>
    <text x="42" y="20" fill="#A6AEC7" font-family="Inter, sans-serif" font-size="12" letter-spacing="2" font-weight="700">ACCENTURE · ONE STUDIO</text>
  </g>
</svg>
