<?xml version="1.0" encoding="UTF-8"?>
<svg viewBox="0 0 409.31 77.9" xmlns="http://www.w3.org/2000/svg">
<defs>
<style>.cls-1{fill:#0071ba;}</style>
</defs>
<g data-name="Capa 2">
<g data-name="Capa 1">
<g data-name="#000000ff">
<path d="M241,2.4c9.58-3.83,21.27-3.23,29.77,2.92,6.06,4.32,9.64,11.41,10.76,18.66-5.45-1.07-11-1.76-16.48-2.45-2.43-6.61-10.45-9.79-16.83-7-2.51,1-4.3,3.07-5.88,5.16-5.37-.28-10.75-.56-16.13-.48C228.17,11.68,234,5.53,241,2.4Z"/>
<path d="M0,.74C9.83.68,19.65.7,29.48.72c7.75.14,15.89,3,20.58,9.48,7.07,8.41,5.43,20.15,5.69,30.34L40.52,44.6c-.11-7,.4-14.14-.9-21.08-1-5.23-6-8.94-11.22-9.24-4.37-.19-8.75,0-13.12-.07q0,19.21,0,38.44Q7.59,55.29,0,58.29C0,39.11.05,19.93,0,.74Z"/>
<path d="M69.27.71H84.52c-.07,11.14.13,22.28-.1,33.42-5.08.89-10.11,2-15.14,3.18C69.25,25.11,69.28,12.91,69.27.71Z"/>
<path d="m99.27 0.71h30.22a25.79 25.79 0 0 1 16 5.06 22.59 22.59 0 0 1 8.51 17.56c-5 0.5-9.91 1.22-14.88 1.72-0.21-4.62-2.71-9.54-7.64-10.46-5.68-0.85-11.49-0.17-17.22-0.37v14.43c-5 0.85-10 1.69-15 2.57z"/>
<path d="m166.52 0.71h50.48v13.5h-35.26v6.48c-5.08 0.48-10.17 0.85-15.26 1.3z"/>
</g>
<g data-name="#0071baff">
<path class="cls-1" d="M285.27.71q27.51,0,55,0c-.07,4.53.14,9.07-.15,13.59-6.62-.2-13.24-.08-19.86-.08q0,31.49,0,63c-5,0-10,0-15,0-.07-21,.12-42-.09-63-6.64.09-13.28.07-19.92,0C285.28,9.69,285.26,5.2,285.27.71Z"/>
<path class="cls-1" d="m347.32 0.71c5.26 0 10.52 0 15.79 0.05q7.49 24.57 15.13 49.11c5.17-16.36 10.07-32.8 15.24-49.16h15.83q-12.71 38.29-25.38 76.52h-11.37q-12.66-38.23-25.24-76.52z"/>
<path class="cls-1" d="M225.2,24.66c5.1.23,10.21.34,15.32.58-.34,7.47-.27,15-.23,22.44.27,4.33.48,9.26,3.63,12.6,4.71,5.46,14.42,5.39,18.93-.3,1.64-1.82,2.35-4.22,3.07-6.51q7.83,0,15.66,0c-1.14,7.71-5.11,15.19-11.69,19.56-14.06,9.76-37.29,4.45-43.1-12.43C223.59,48.93,224.93,36.61,225.2,24.66Z"/>
<path class="cls-1" d="m166.52 28.09c5.08-0.58 10.16-1.14 15.25-1.57v5.18h30v13.75h-30v18h35.23v13.75q-25.25 0-50.5 0z"/>
<path class="cls-1" d="m99.28 40.66a502.72 502.72 0 0 1 54.23-10.73 21.11 21.11 0 0 1-13.07 14.29c5.26 11.16 11.34 21.93 16.83 33h-17.6c-4.92-10.2-9.93-20.36-14.91-30.53h-10.48q0 15.24 0 30.48-7.52 0-15 0-0.01-18.24 0-36.51z"/>
<path class="cls-1" d="m69.25 49.46c5.06-1.67 10.15-3.28 15.27-4.77v32.52h-15.25c-0.02-9.21 0.03-18.5-0.02-27.75z"/>
<path class="cls-1" d="M6.18,77.2C21.72,68,38.37,60.7,55.29,54.39c-.77,6.07-3.31,12-8,16.16-5,4.72-12,6.55-18.74,6.66Q17.39,77.22,6.18,77.2Z"/>
</g>
</g>
</g>
</svg>
