<svg width="1552" height="1552" viewBox="0 0 1552 1552" fill="none" xmlns="http://www.w3.org/2000/svg">
<circle cx="776" cy="776" r="766" fill="#C04337" stroke="white" stroke-width="20"/>
<path d="M200.499 786C158.898 423.6 426.167 244.5 565.5 205C571.099 247.4 717.5 441.167 789.5 528C752.667 566.167 701.1 671.2 789.5 786C900 929.5 1075.5 862.5 1087.5 850.5C1097.1 840.9 1105.83 843.833 1109 846.5L1236.5 956C1251.5 974 1250.5 974.5 1248 982C1245.17 987.833 1234.7 1005.9 1215.5 1031.5C1196.3 1057.1 1196.17 1075.83 1198.5 1082C1200.17 1085.17 1210.7 1099.1 1239.5 1129.5C1259.5 1164.7 1244.5 1207.5 1234.5 1224.5L1166.5 1261.5C1140.33 1274.33 1085.2 1295.9 1074 1279.5C1062.8 1263.1 1047.67 1227 1041.5 1211C1041 1226.17 1040.3 1261.1 1041.5 1279.5C1043 1302.5 1024 1322 1012 1332.5C1000 1343 985 1341.5 925 1354C877 1364 854 1339.5 848.5 1326V1234.5C840.5 1187.3 824.833 1261.5 818 1304.5C810.667 1328 791.8 1376 775 1380C754 1385 682 1384.5 631.5 1367.5C581 1350.5 573 1298.5 574.5 1265.5C575.7 1239.1 566.333 1243.83 561.5 1249.5C546.667 1273.5 513.5 1324.4 499.5 1336C482 1350.5 477.5 1358.5 396 1326C330.8 1300 345.167 1247.17 360.5 1224C379 1196.67 420.899 1136.6 440.499 1115C298 1040.5 217.259 932 200.499 786Z" fill="white"/>
<path d="M1277 904L1142 806.5C1195.17 740.667 1247 580 1126 485C990.271 378.436 862.833 444.167 819.5 485.5C741.9 397.1 652.833 244.667 618 179.5C725.5 134 1045.9 150.921 1200 299C1454.24 543.313 1299.16 883.299 1292.12 898.727L1292 899C1288 907.8 1280.33 906 1277 904Z" fill="white"/>
<path d="M468.549 566.838C471.318 558.857 482.122 557.692 486.529 564.9L526.807 630.785C528.546 633.629 531.587 635.419 534.917 635.56L624.163 639.332C633.022 639.706 637.048 650.57 630.572 656.626L572.563 710.879C569.215 714.011 568.425 719.017 570.646 723.027L609.305 792.84C613.688 800.754 606.146 809.957 597.525 807.214L505.564 777.952C502.953 777.121 500.116 777.398 497.715 778.718L413.592 824.962C405.722 829.288 396.582 821.853 399.214 813.268L421.761 739.725C422.978 735.758 421.618 731.452 418.345 728.903L362.403 685.342C355.969 680.333 357.914 670.143 365.74 667.854L436.206 647.247C439.312 646.338 441.786 643.983 442.847 640.926L468.549 566.838Z" fill="black"/>
</svg>
