<svg xmlns="http://www.w3.org/2000/svg" viewBox="0 0 2400 800" width="2400" height="800" role="img" aria-label="Dashboard Samarco — PMO Estratégico — capa 3:1">
  <defs>
    <linearGradient id="sBg" x1="0" y1="0" x2="1" y2="1">
      <stop offset="0%" stop-color="#0E2A47"/>
      <stop offset="100%" stop-color="#153A63"/>
    </linearGradient>
    <linearGradient id="sAccent" x1="0" y1="0" x2="1" y2="0">
      <stop offset="0%" stop-color="#0066FF"/>
      <stop offset="100%" stop-color="#3B82F6"/>
    </linearGradient>
    <linearGradient id="sAccentV" x1="0" y1="1" x2="0" y2="0">
      <stop offset="0%" stop-color="#0066FF"/>
      <stop offset="100%" stop-color="#7FD3FF"/>
    </linearGradient>
    <linearGradient id="sPanel" x1="0" y1="0" x2="0" y2="1">
      <stop offset="0%" stop-color="#1A3A5E"/>
      <stop offset="100%" stop-color="#122A47"/>
    </linearGradient>
    <radialGradient id="sGlow" cx="50%" cy="50%" r="50%">
      <stop offset="0%" stop-color="rgba(0,102,255,0.35)"/>
      <stop offset="100%" stop-color="rgba(0,102,255,0)"/>
    </radialGradient>
    <radialGradient id="sGlow2" cx="50%" cy="50%" r="50%">
      <stop offset="0%" stop-color="rgba(127,211,255,0.25)"/>
      <stop offset="100%" stop-color="rgba(127,211,255,0)"/>
    </radialGradient>
  </defs>

  <!-- Background -->
  <rect width="2400" height="800" fill="url(#sBg)"/>
  <circle cx="2050" cy="180" r="520" fill="url(#sGlow)"/>
  <circle cx="240" cy="680" r="460" fill="url(#sGlow2)" opacity=".7"/>

  <!-- Grid texture -->
  <g stroke="rgba(255,255,255,.035)" stroke-width="1">
    <line x1="0" y1="160" x2="2400" y2="160"/>
    <line x1="0" y1="320" x2="2400" y2="320"/>
    <line x1="0" y1="480" x2="2400" y2="480"/>
    <line x1="0" y1="640" x2="2400" y2="640"/>
    <line x1="400" y1="0" x2="400" y2="800"/>
    <line x1="800" y1="0" x2="800" y2="800"/>
    <line x1="1200" y1="0" x2="1200" y2="800"/>
    <line x1="1600" y1="0" x2="1600" y2="800"/>
    <line x1="2000" y1="0" x2="2000" y2="800"/>
  </g>

  <!-- Header / chrome -->
  <rect x="80" y="60" width="2240" height="56" rx="12" fill="rgba(255,255,255,.05)"/>
  <circle cx="108" cy="88" r="6" fill="#E14F4F"/>
  <circle cx="128" cy="88" r="6" fill="#E3A93A"/>
  <circle cx="148" cy="88" r="6" fill="#2BB573"/>
  <rect x="180" y="78" width="200" height="20" rx="4" fill="rgba(255,255,255,.12)"/>
  <text x="186" y="93" fill="rgba(255,255,255,.55)" font-family="Inter, sans-serif" font-size="11" letter-spacing="1.5" font-weight="600">DASHBOARDS · PMO ESTRATÉGICO</text>
  <rect x="2160" y="78" width="140" height="20" rx="10" fill="url(#sAccent)"/>
  <text x="2230" y="92" text-anchor="middle" fill="#fff" font-family="Inter, sans-serif" font-size="10" letter-spacing="2" font-weight="700">V1 · COCKPIT</text>

  <!-- ============================================ -->
  <!-- KPI cards row (5 cards across the top)       -->
  <!-- ============================================ -->
  <g>
    <!-- KPI 1 — CAPEX -->
    <rect x="80" y="140" width="430" height="150" rx="14" fill="url(#sPanel)" stroke="rgba(255,255,255,.08)"/>
    <text x="106" y="180" fill="#9EB6D1" font-family="Inter, sans-serif" font-size="13" letter-spacing="2.5" font-weight="700">CAPEX EXECUTADO</text>
    <text x="106" y="232" fill="#fff" font-family="Inter, sans-serif" font-size="44" font-weight="700">R$ 842 M</text>
    <text x="106" y="266" fill="#2BB573" font-family="Inter, sans-serif" font-size="14" font-weight="600">▲ 6,2% vs. plano · 2025</text>
    <!-- mini sparkline -->
    <polyline fill="none" stroke="#2BB573" stroke-width="2" stroke-linecap="round" stroke-linejoin="round"
              points="340,260 360,250 380,255 400,240 420,232 440,225 460,210 480,202"/>

    <!-- KPI 2 — Riscos -->
    <rect x="540" y="140" width="430" height="150" rx="14" fill="url(#sPanel)" stroke="rgba(255,255,255,.08)"/>
    <text x="566" y="180" fill="#9EB6D1" font-family="Inter, sans-serif" font-size="13" letter-spacing="2.5" font-weight="700">PROJETOS EM RISCO</text>
    <text x="566" y="232" fill="#fff" font-family="Inter, sans-serif" font-size="44" font-weight="700">7 / 34</text>
    <text x="566" y="266" fill="#E14F4F" font-family="Inter, sans-serif" font-size="14" font-weight="600">● Crítico · requer decisão de comitê</text>
    <!-- donut -->
    <g transform="translate(905,215)">
      <circle r="35" fill="none" stroke="rgba(255,255,255,.08)" stroke-width="8"/>
      <circle r="35" fill="none" stroke="#E14F4F" stroke-width="8" stroke-linecap="round"
              stroke-dasharray="45 220" stroke-dashoffset="0" transform="rotate(-90)"/>
    </g>

    <!-- KPI 3 — OKRs -->
    <rect x="1000" y="140" width="430" height="150" rx="14" fill="url(#sPanel)" stroke="rgba(255,255,255,.08)"/>
    <text x="1026" y="180" fill="#9EB6D1" font-family="Inter, sans-serif" font-size="13" letter-spacing="2.5" font-weight="700">OKRs NO ALVO</text>
    <text x="1026" y="232" fill="#fff" font-family="Inter, sans-serif" font-size="44" font-weight="700">82%</text>
    <text x="1026" y="266" fill="#E3A93A" font-family="Inter, sans-serif" font-size="14" font-weight="600">● Atenção · meta Q2 2025</text>
    <!-- progress bar -->
    <rect x="1280" y="218" width="130" height="8" rx="4" fill="rgba(255,255,255,.08)"/>
    <rect x="1280" y="218" width="107" height="8" rx="4" fill="#E3A93A"/>

    <!-- KPI 4 — Ações ESG -->
    <rect x="1460" y="140" width="430" height="150" rx="14" fill="url(#sPanel)" stroke="rgba(255,255,255,.08)"/>
    <text x="1486" y="180" fill="#9EB6D1" font-family="Inter, sans-serif" font-size="13" letter-spacing="2.5" font-weight="700">AÇÕES ESG NO PRAZO</text>
    <text x="1486" y="232" fill="#fff" font-family="Inter, sans-serif" font-size="44" font-weight="700">94%</text>
    <text x="1486" y="266" fill="#2BB573" font-family="Inter, sans-serif" font-size="14" font-weight="600">▲ +3pp · vs. trimestre anterior</text>
    <!-- mini sparkline -->
    <polyline fill="none" stroke="#7FD3FF" stroke-width="2" stroke-linecap="round" stroke-linejoin="round"
              points="1740,260 1760,255 1780,248 1800,245 1820,238 1840,232 1860,228 1880,222"/>

    <!-- KPI 5 — Indicadores -->
    <rect x="1920" y="140" width="400" height="150" rx="14" fill="url(#sPanel)" stroke="rgba(255,255,255,.08)"/>
    <text x="1946" y="180" fill="#9EB6D1" font-family="Inter, sans-serif" font-size="13" letter-spacing="2.5" font-weight="700">INDICADORES</text>
    <text x="1946" y="232" fill="#fff" font-family="Inter, sans-serif" font-size="44" font-weight="700">+30</text>
    <text x="1946" y="266" fill="#0066FF" font-family="Inter, sans-serif" font-size="14" font-weight="600">6 famílias ESG · sync Power BI</text>
    <!-- mini bars -->
    <g>
      <rect x="2200" y="240" width="10" height="22" rx="2" fill="url(#sAccentV)" opacity=".7"/>
      <rect x="2215" y="232" width="10" height="30" rx="2" fill="url(#sAccentV)" opacity=".8"/>
      <rect x="2230" y="220" width="10" height="42" rx="2" fill="url(#sAccentV)" opacity=".9"/>
      <rect x="2245" y="225" width="10" height="37" rx="2" fill="url(#sAccentV)" opacity=".85"/>
      <rect x="2260" y="210" width="10" height="52" rx="2" fill="url(#sAccentV)"/>
      <rect x="2275" y="218" width="10" height="44" rx="2" fill="url(#sAccentV)" opacity=".9"/>
    </g>
  </g>

  <!-- ============================================ -->
  <!-- Chart panel · CAPEX mensal                   -->
  <!-- ============================================ -->
  <rect x="80" y="320" width="1180" height="400" rx="14" fill="url(#sPanel)" stroke="rgba(255,255,255,.08)"/>
  <text x="110" y="358" fill="#fff" font-family="Inter, sans-serif" font-size="18" font-weight="600">Portfólio Estratégico · CAPEX mensal acumulado</text>
  <text x="110" y="380" fill="#9EB6D1" font-family="Inter, sans-serif" font-size="12" letter-spacing="1.5">JAN — DEZ 2025 · MENSAL VS. ACUMULADO</text>
  <!-- legend -->
  <g transform="translate(960,358)">
    <rect x="0" y="-10" width="14" height="14" rx="3" fill="url(#sAccent)"/>
    <text x="22" y="2" fill="#9EB6D1" font-family="Inter, sans-serif" font-size="12">Mensal</text>
    <line x1="100" y1="-3" x2="120" y2="-3" stroke="#7FD3FF" stroke-width="3" stroke-linecap="round"/>
    <circle cx="110" cy="-3" r="3" fill="#7FD3FF"/>
    <text x="128" y="2" fill="#9EB6D1" font-family="Inter, sans-serif" font-size="12">Acumulado</text>
  </g>

  <!-- Y axis grid -->
  <g stroke="rgba(255,255,255,.06)" stroke-width="1">
    <line x1="140" y1="450" x2="1220" y2="450"/>
    <line x1="140" y1="520" x2="1220" y2="520"/>
    <line x1="140" y1="590" x2="1220" y2="590"/>
    <line x1="140" y1="660" x2="1220" y2="660"/>
  </g>

  <!-- Bars -->
  <g>
    <rect x="160"  y="540" width="60" height="120" rx="5" fill="url(#sAccentV)" opacity=".75"/>
    <rect x="250"  y="510" width="60" height="150" rx="5" fill="url(#sAccentV)" opacity=".8"/>
    <rect x="340"  y="475" width="60" height="185" rx="5" fill="url(#sAccentV)" opacity=".85"/>
    <rect x="430"  y="460" width="60" height="200" rx="5" fill="url(#sAccentV)" opacity=".9"/>
    <rect x="520"  y="490" width="60" height="170" rx="5" fill="url(#sAccentV)" opacity=".85"/>
    <rect x="610"  y="440" width="60" height="220" rx="5" fill="url(#sAccentV)" opacity=".95"/>
    <rect x="700"  y="410" width="60" height="250" rx="5" fill="url(#sAccentV)"/>
    <rect x="790"  y="425" width="60" height="235" rx="5" fill="url(#sAccentV)" opacity=".95"/>
    <rect x="880"  y="450" width="60" height="210" rx="5" fill="url(#sAccentV)" opacity=".9"/>
    <rect x="970"  y="470" width="60" height="190" rx="5" fill="url(#sAccentV)" opacity=".85"/>
    <rect x="1060" y="485" width="60" height="175" rx="5" fill="url(#sAccentV)" opacity=".8"/>
    <rect x="1150" y="500" width="60" height="160" rx="5" fill="url(#sAccentV)" opacity=".75"/>
  </g>

  <!-- Trend line (cumulative) -->
  <polyline fill="none" stroke="#7FD3FF" stroke-width="3.5" stroke-linecap="round" stroke-linejoin="round"
            points="190,610 280,580 370,540 460,500 550,480 640,440 730,415 820,420 910,438 1000,455 1090,478 1180,500"/>
  <g fill="#7FD3FF">
    <circle cx="190"  cy="610" r="5"/>
    <circle cx="280"  cy="580" r="5"/>
    <circle cx="370"  cy="540" r="5"/>
    <circle cx="460"  cy="500" r="5"/>
    <circle cx="550"  cy="480" r="5"/>
    <circle cx="640"  cy="440" r="5"/>
    <circle cx="730"  cy="415" r="5"/>
    <circle cx="820"  cy="420" r="5"/>
    <circle cx="910"  cy="438" r="5"/>
    <circle cx="1000" cy="455" r="5"/>
    <circle cx="1090" cy="478" r="5"/>
    <circle cx="1180" cy="500" r="5"/>
  </g>

  <!-- Baseline -->
  <line x1="140" y1="660" x2="1220" y2="660" stroke="rgba(255,255,255,.22)"/>
  <!-- X labels -->
  <g fill="#9EB6D1" font-family="Inter, sans-serif" font-size="11" font-weight="600">
    <text x="190"  y="690" text-anchor="middle">JAN</text>
    <text x="280"  y="690" text-anchor="middle">FEV</text>
    <text x="370"  y="690" text-anchor="middle">MAR</text>
    <text x="460"  y="690" text-anchor="middle">ABR</text>
    <text x="550"  y="690" text-anchor="middle">MAI</text>
    <text x="640"  y="690" text-anchor="middle">JUN</text>
    <text x="730"  y="690" text-anchor="middle">JUL</text>
    <text x="820"  y="690" text-anchor="middle">AGO</text>
    <text x="910"  y="690" text-anchor="middle">SET</text>
    <text x="1000" y="690" text-anchor="middle">OUT</text>
    <text x="1090" y="690" text-anchor="middle">NOV</text>
    <text x="1180" y="690" text-anchor="middle">DEZ</text>
  </g>

  <!-- ============================================ -->
  <!-- Risk heatmap panel · 5×5                     -->
  <!-- ============================================ -->
  <rect x="1290" y="320" width="540" height="400" rx="14" fill="url(#sPanel)" stroke="rgba(255,255,255,.08)"/>
  <text x="1320" y="358" fill="#fff" font-family="Inter, sans-serif" font-size="18" font-weight="600">Mapa de Riscos · 5 × 5</text>
  <text x="1320" y="380" fill="#9EB6D1" font-family="Inter, sans-serif" font-size="12" letter-spacing="1.5">IMPACTO × PROBABILIDADE</text>

  <g>
    <!-- Row 5 (top — impacto máximo) -->
    <rect x="1340" y="410" width="92" height="56" rx="5" fill="rgba(227,169,58,.45)"/>
    <rect x="1438" y="410" width="92" height="56" rx="5" fill="rgba(225,79,79,.55)"/>
    <rect x="1536" y="410" width="92" height="56" rx="5" fill="rgba(225,79,79,.85)"/>
    <rect x="1634" y="410" width="92" height="56" rx="5" fill="rgba(225,79,79,.85)"/>
    <rect x="1732" y="410" width="92" height="56" rx="5" fill="rgba(225,79,79,.85)"/>
    <!-- Row 4 -->
    <rect x="1340" y="472" width="92" height="56" rx="5" fill="rgba(43,181,115,.35)"/>
    <rect x="1438" y="472" width="92" height="56" rx="5" fill="rgba(227,169,58,.45)"/>
    <rect x="1536" y="472" width="92" height="56" rx="5" fill="rgba(225,79,79,.55)"/>
    <rect x="1634" y="472" width="92" height="56" rx="5" fill="rgba(225,79,79,.55)"/>
    <rect x="1732" y="472" width="92" height="56" rx="5" fill="rgba(225,79,79,.85)"/>
    <!-- Row 3 -->
    <rect x="1340" y="534" width="92" height="56" rx="5" fill="rgba(43,181,115,.35)"/>
    <rect x="1438" y="534" width="92" height="56" rx="5" fill="rgba(43,181,115,.35)"/>
    <rect x="1536" y="534" width="92" height="56" rx="5" fill="rgba(227,169,58,.45)"/>
    <rect x="1634" y="534" width="92" height="56" rx="5" fill="rgba(225,79,79,.55)"/>
    <rect x="1732" y="534" width="92" height="56" rx="5" fill="rgba(225,79,79,.55)"/>
    <!-- Row 2 -->
    <rect x="1340" y="596" width="92" height="56" rx="5" fill="rgba(43,181,115,.22)"/>
    <rect x="1438" y="596" width="92" height="56" rx="5" fill="rgba(43,181,115,.35)"/>
    <rect x="1536" y="596" width="92" height="56" rx="5" fill="rgba(43,181,115,.35)"/>
    <rect x="1634" y="596" width="92" height="56" rx="5" fill="rgba(227,169,58,.45)"/>
    <rect x="1732" y="596" width="92" height="56" rx="5" fill="rgba(227,169,58,.45)"/>
    <!-- Row 1 (bottom — impacto mínimo) -->
    <rect x="1340" y="658" width="92" height="46" rx="5" fill="rgba(43,181,115,.22)"/>
    <rect x="1438" y="658" width="92" height="46" rx="5" fill="rgba(43,181,115,.22)"/>
    <rect x="1536" y="658" width="92" height="46" rx="5" fill="rgba(43,181,115,.35)"/>
    <rect x="1634" y="658" width="92" height="46" rx="5" fill="rgba(43,181,115,.35)"/>
    <rect x="1732" y="658" width="92" height="46" rx="5" fill="rgba(227,169,58,.45)"/>

    <!-- Risk dots (pinos no heatmap) -->
    <circle cx="1690" cy="438" r="7" fill="#fff" stroke="#E14F4F" stroke-width="2.5"/>
    <circle cx="1565" cy="500" r="7" fill="#fff" stroke="#E14F4F" stroke-width="2.5"/>
    <circle cx="1480" cy="560" r="7" fill="#fff" stroke="#E3A93A" stroke-width="2.5"/>
    <circle cx="1380" cy="625" r="7" fill="#fff" stroke="#2BB573" stroke-width="2.5"/>
  </g>

  <!-- ============================================ -->
  <!-- KPI summary panel (right side)               -->
  <!-- ============================================ -->
  <rect x="1860" y="320" width="460" height="400" rx="14" fill="url(#sPanel)" stroke="rgba(255,255,255,.08)"/>
  <text x="1890" y="358" fill="#fff" font-family="Inter, sans-serif" font-size="18" font-weight="600">Eixos Mandala Estratégica</text>
  <text x="1890" y="380" fill="#9EB6D1" font-family="Inter, sans-serif" font-size="12" letter-spacing="1.5">RAG · 6 EIXOS · 2023–2028</text>

  <!-- 6 mandala rows with RAG bars -->
  <g font-family="Inter, sans-serif">
    <!-- Row 1 -->
    <text x="1890" y="425" fill="#E6EEF8" font-size="13" font-weight="600">Cultura</text>
    <rect x="2070" y="412" width="200" height="16" rx="8" fill="rgba(255,255,255,.06)"/>
    <rect x="2070" y="412" width="166" height="16" rx="8" fill="#2BB573"/>
    <text x="2245" y="425" fill="#2BB573" font-size="12" font-weight="700" text-anchor="end">83%</text>

    <!-- Row 2 -->
    <text x="1890" y="465" fill="#E6EEF8" font-size="13" font-weight="600">Sustentabilidade</text>
    <rect x="2070" y="452" width="200" height="16" rx="8" fill="rgba(255,255,255,.06)"/>
    <rect x="2070" y="452" width="150" height="16" rx="8" fill="#2BB573"/>
    <text x="2245" y="465" fill="#2BB573" font-size="12" font-weight="700" text-anchor="end">75%</text>

    <!-- Row 3 -->
    <text x="1890" y="505" fill="#E6EEF8" font-size="13" font-weight="600">Retomada</text>
    <rect x="2070" y="492" width="200" height="16" rx="8" fill="rgba(255,255,255,.06)"/>
    <rect x="2070" y="492" width="118" height="16" rx="8" fill="#E3A93A"/>
    <text x="2245" y="505" fill="#E3A93A" font-size="12" font-weight="700" text-anchor="end">59%</text>

    <!-- Row 4 -->
    <text x="1890" y="545" fill="#E6EEF8" font-size="13" font-weight="600">Novos Negócios</text>
    <rect x="2070" y="532" width="200" height="16" rx="8" fill="rgba(255,255,255,.06)"/>
    <rect x="2070" y="532" width="86" height="16" rx="8" fill="#E14F4F"/>
    <text x="2245" y="545" fill="#E14F4F" font-size="12" font-weight="700" text-anchor="end">43%</text>

    <!-- Row 5 -->
    <text x="1890" y="585" fill="#E6EEF8" font-size="13" font-weight="600">Modelo Operacional</text>
    <rect x="2070" y="572" width="200" height="16" rx="8" fill="rgba(255,255,255,.06)"/>
    <rect x="2070" y="572" width="178" height="16" rx="8" fill="#2BB573"/>
    <text x="2245" y="585" fill="#2BB573" font-size="12" font-weight="700" text-anchor="end">89%</text>

    <!-- Row 6 -->
    <text x="1890" y="625" fill="#E6EEF8" font-size="13" font-weight="600">Reserva &amp; Rejeitos</text>
    <rect x="2070" y="612" width="200" height="16" rx="8" fill="rgba(255,255,255,.06)"/>
    <rect x="2070" y="612" width="140" height="16" rx="8" fill="#E3A93A"/>
    <text x="2245" y="625" fill="#E3A93A" font-size="12" font-weight="700" text-anchor="end">70%</text>
  </g>

  <!-- Divider + small status legend -->
  <line x1="1890" y1="652" x2="2270" y2="652" stroke="rgba(255,255,255,.08)"/>
  <g font-family="Inter, sans-serif" font-size="11" font-weight="600">
    <circle cx="1898" cy="685" r="6" fill="#2BB573"/><text x="1912" y="689" fill="#9EB6D1">Normal</text>
    <circle cx="1990" cy="685" r="6" fill="#E3A93A"/><text x="2004" y="689" fill="#9EB6D1">Alerta</text>
    <circle cx="2078" cy="685" r="6" fill="#E14F4F"/><text x="2092" y="689" fill="#9EB6D1">Crítico</text>
    <circle cx="2170" cy="685" r="6" fill="rgba(255,255,255,.25)"/><text x="2184" y="689" fill="#9EB6D1">Sem dado</text>
  </g>

  <!-- ============================================ -->
  <!-- Footer ribbon — branding                     -->
  <!-- ============================================ -->
  <rect x="0" y="740" width="2400" height="60" fill="rgba(0,0,0,.18)"/>
  <text x="80" y="778" fill="#0066FF" font-family="Inter, sans-serif" font-size="13" letter-spacing="4" font-weight="700">DASHBOARDS PMO ESTRATÉGICO · SAMARCO · CABINE DE COMANDO EXECUTIVA</text>
  <g transform="translate(2050,752)">
    <text x="0" y="20" fill="#9EB6D1" font-family="Inter, sans-serif" font-size="12" letter-spacing="1.5" font-weight="600">PORTFÓLIO · RISCOS · CAPEX · OKRs</text>
    <circle cx="270" cy="14" r="6" fill="#2BB573"/>
    <circle cx="290" cy="14" r="6" fill="#E3A93A"/>
    <circle cx="310" cy="14" r="6" fill="#E14F4F"/>
  </g>
</svg>
