<svg width="24" height="24" viewBox="0 0 24 24" fill="none" xmlns="http://www.w3.org/2000/svg"><path d="M4.9001 21L4.7501 19.725L4.5501 19.625C4.48343 19.5917 4.39176 19.5333 4.2751 19.45L3.0751 19.95L1.9751 18.05L3.0001 17.275V16.75L1.9751 15.95L3.0751 14.05L4.2751 14.55C4.35843 14.5 4.4376 14.45 4.5126 14.4C4.5876 14.35 4.66676 14.3083 4.7501 14.275L4.9001 13H7.1001L7.2501 14.275L7.4501 14.375C7.48343 14.3917 7.5251 14.4167 7.5751 14.45L7.7251 14.55L8.9251 14.05L10.0251 15.95L9.0001 16.725V17.275L14.4751 14.1L13.3501 16.075L13.6501 16.3L9.7001 18.6L8.9251 19.95L7.7251 19.45C7.64176 19.5 7.5626 19.55 7.4876 19.6C7.4126 19.65 7.33343 19.6917 7.2501 19.725L7.1001 21H4.9001ZM6.0001 15.5C5.58343 15.5 5.22926 15.6458 4.9376 15.9375C4.64593 16.2292 4.5001 16.5833 4.5001 17C4.5001 17.4167 4.64593 17.7708 4.9376 18.0625C5.22926 18.3542 5.58343 18.5 6.0001 18.5C6.41676 18.5 6.77093 18.3542 7.0626 18.0625C7.35426 17.7708 7.5001 17.4167 7.5001 17C7.5001 16.5833 7.35426 16.2292 7.0626 15.9375C6.77093 15.6458 6.41676 15.5 6.0001 15.5ZM9.9001 10L9.7501 8.725C9.71676 8.69167 9.6751 8.66667 9.6251 8.65C9.5751 8.63333 9.53343 8.60833 9.5001 8.575V14.075L9.1251 13.425L8.0001 13.9V8.8L7.0001 7.05L8.0001 6.275V5.75L6.9751 4.95L8.0751 3.05L9.2751 3.55C9.35843 3.5 9.4376 3.45 9.5126 3.4C9.5876 3.35 9.66676 3.30833 9.7501 3.275L9.9001 2H12.1001L12.2501 3.275L12.4501 3.375C12.5168 3.40833 12.6084 3.46667 12.7251 3.55L13.9251 3.05L15.0251 4.95L14.0001 5.725V6.25L15.0251 7.05L13.9251 8.95L12.7251 8.45C12.6418 8.5 12.5626 8.55 12.4876 8.6C12.4126 8.65 12.3334 8.69167 12.2501 8.725L12.1001 10H9.9001ZM11.0001 4.5C10.5834 4.5 10.2293 4.64583 9.9376 4.9375C9.64593 5.22917 9.5001 5.58333 9.5001 6C9.5001 6.41667 9.64593 6.77083 9.9376 7.0625C10.2293 7.35417 10.5834 7.5 11.0001 7.5C11.4168 7.5 11.7709 7.35417 12.0626 7.0625C12.3543 6.77083 12.5001 6.41667 12.5001 6C12.5001 5.58333 12.3543 5.22917 12.0626 4.9375C11.7709 4.64583 11.4168 4.5 11.0001 4.5ZM16.9001 21L16.7501 19.725L16.5501 19.625C16.4834 19.5917 16.3918 19.5333 16.2751 19.45L15.0751 19.95L13.9751 18.05L15.0001 17.275V16.75L13.9751 15.975L15.0751 14.05L16.2751 14.55C16.3251 14.5167 16.3584 14.4958 16.3751 14.4875L16.7501 14.3L11.3501 10.5H12.5501L12.6501 9.6L17.5251 13H19.1001L19.2501 14.275L19.4501 14.375C19.4834 14.3917 19.5251 14.4167 19.5751 14.45L19.7251 14.55L20.9251 14.05L22.0251 15.95L21.0001 16.725V17.25L22.0251 18.05L20.9251 19.95L19.7251 19.45C19.6418 19.5 19.5626 19.55 19.4876 19.6C19.4126 19.65 19.3334 19.6917 19.2501 19.725L19.1001 21H16.9001ZM18.0001 15.5C17.5834 15.5 17.2293 15.6458 16.9376 15.9375C16.6459 16.2292 16.5001 16.5833 16.5001 17C16.5001 17.4167 16.6459 17.7708 16.9376 18.0625C17.2293 18.3542 17.5834 18.5 18.0001 18.5C18.4168 18.5 18.7709 18.3542 19.0626 18.0625C19.3543 17.7708 19.5001 17.4167 19.5001 17C19.5001 16.5833 19.3543 16.2292 19.0626 15.9375C18.7709 15.6458 18.4168 15.5 18.0001 15.5Z" fill="#000"/></svg>
