<svg viewBox="0 0 320 200" xmlns="http://www.w3.org/2000/svg" role="img" aria-label="Engraved schematic — Campaign Genius: generate, curate, fine-edit">
  <defs>
    <radialGradient id="cg-glow" cx="50%" cy="32%" r="75%">
      <stop offset="0%" stop-color="#3a2410"></stop>
      <stop offset="100%" stop-color="#201510"></stop>
    </radialGradient>
  </defs>
  <rect width="320" height="200" fill="url(#cg-glow)"></rect>
  <rect x="8" y="8" width="304" height="184" fill="none" stroke="#7a2620" stroke-width="0.8" opacity="0.55"></rect>
  <rect x="13" y="13" width="294" height="174" fill="none" stroke="#b58d3d" stroke-width="0.4" opacity="0.3"></rect>
  
  <g stroke="#b58d3d" stroke-width="1" opacity="0.7">
    <path d="M18 24 V18 H24"></path><path d="M296 18 H302 V24"></path><path d="M18 176 V182 H24"></path><path d="M302 176 V182 H296"></path>
  </g>
  
  <text x="160" y="34" text-anchor="middle" font-family="&#39;JetBrains Mono&#39;, monospace" font-size="7" fill="#b58d3d" letter-spacing="4" opacity="0.85">PLATE · IV</text>
  <text x="160" y="52" text-anchor="middle" font-family="&#39;Instrument Serif&#39;, serif" font-size="17" font-style="italic" fill="#f1ece0" opacity="0.96">Campaign Genius</text>
  <line x1="118" y1="60" x2="202" y2="60" stroke="#7a2620" stroke-width="0.6" opacity="0.55"></line>

  
  <g transform="translate(26,78)">
    <rect x="-3" y="-3" width="62" height="62" fill="#c4b8a0" opacity="0.04"></rect>
    <rect x="0" y="0" width="26" height="26" fill="#c4b8a0" opacity="0.1"></rect>
    <rect x="30" y="0" width="26" height="26" fill="#b58d3d" opacity="0.16" stroke="#b58d3d" stroke-width="1.2"></rect>
    <rect x="0" y="30" width="26" height="26" fill="#c4b8a0" opacity="0.1"></rect>
    <rect x="30" y="30" width="26" height="26" fill="#c4b8a0" opacity="0.1"></rect>
    <text x="28" y="74" text-anchor="middle" font-family="&#39;JetBrains Mono&#39;, monospace" font-size="6.5" fill="#c4b8a0" letter-spacing="1.5" opacity="0.6">I · GENERATE</text>
  </g>
  <path d="M92 104 H108" stroke="#b58d3d" stroke-width="0.9" opacity="0.7"></path>
  <path d="M104 100 L110 104 L104 108" fill="none" stroke="#b58d3d" stroke-width="0.9" opacity="0.7"></path>

  
  <g transform="translate(118,76)">
    <rect x="0" y="0" width="84" height="60" fill="#c4b8a0" opacity="0.06" stroke="#c4b8a0" stroke-width="0.5" stroke-opacity="0.3"></rect>
    <rect x="14" y="12" width="56" height="36" fill="none" stroke="#7a2620" stroke-width="1" stroke-dasharray="3 3" opacity="0.8"></rect>
    <g stroke="#b58d3d" stroke-width="1.4" opacity="0.85">
      <path d="M14 12 h6 M14 12 v6"></path><path d="M70 12 h-6 M70 12 v6"></path>
      <path d="M14 48 h6 M14 48 v-6"></path><path d="M70 48 h-6 M70 48 v-6"></path>
    </g>
    <circle cx="42" cy="30" r="3" fill="#b58d3d" opacity="0.7"></circle>
    <text x="42" y="74" text-anchor="middle" font-family="&#39;JetBrains Mono&#39;, monospace" font-size="6.5" fill="#c4b8a0" letter-spacing="1.5" opacity="0.6">II · CURATE</text>
  </g>
  <path d="M206 104 H222" stroke="#b58d3d" stroke-width="0.9" opacity="0.7"></path>
  <path d="M218 100 L224 104 L218 108" fill="none" stroke="#b58d3d" stroke-width="0.9" opacity="0.7"></path>

  
  <g transform="translate(232,80)">
    <g stroke="#c4b8a0" stroke-width="1" opacity="0.35">
      <line x1="0" y1="6" x2="56" y2="6"></line><line x1="0" y1="22" x2="56" y2="22"></line><line x1="0" y1="38" x2="56" y2="38"></line>
    </g>
    <circle cx="38" cy="6" r="3.2" fill="#1d3a78" opacity="0.8"></circle>
    <circle cx="18" cy="22" r="3.2" fill="#7a2620" opacity="0.85"></circle>
    <circle cx="46" cy="38" r="3.2" fill="#b58d3d" opacity="0.85"></circle>
    <text x="28" y="60" text-anchor="middle" font-family="&#39;JetBrains Mono&#39;, monospace" font-size="6.5" fill="#c4b8a0" letter-spacing="1.2" opacity="0.6">III · FINE-EDIT</text>
  </g>

  <line x1="40" y1="172" x2="280" y2="172" stroke="#b58d3d" stroke-width="0.6" opacity="0.4"></line>
  <text x="160" y="186" text-anchor="middle" font-family="&#39;EB Garamond&#39;, serif" font-size="8.5" font-style="italic" fill="#c4b8a0" opacity="0.7">Fig. iv — o fluxo gerar · curar · refinar</text>
</svg>